<svg xmlns="http://www.w3.org/2000/svg" height="145.996" width="172.305" viewBox="0 0 161.53684 136.87241"><g fill-opacity="0" stroke-miterlimit="10" fill="none" stroke-width="1.25"><path d="M6.885 5.775c0 50.782 1.524 74.141 1.524 124.924h146.25" stroke="#746661"/><path d="M.593 15.533a245.52 245.52 0 0 1 5.03-13.716l5.71 17.206c-.229-.838-1.277-1.083-2.141-1.176l-8.705-.953m141.217 105.751a35.75 35.75 0 0 1 .095 12.994 72.453 72.453 0 0 1 14.294-6.484 154.079 154.079 0 0 1-14.55-7.243m1.101 4.293c.594-.396 1.188-.791 1.781-1.188m-1.511 4.708a24.746 24.746 0 0 1 6.564-4.114m-6.284 7.054a43.82 43.82 0 0 1 9.014-5.75M4.342 8.673l2.331-1.835m-4.089 6.309A22.8 22.8 0 0 1 8.43 8.841m-5.315 6.884a41.96 41.96 0 0 0 6.34-4.298M8.5 16.69l1.186-.891M7.014 49.672l6.228-.388m5.946 1.03c2.079-.183 4.158-.365 6.236-.549m10.076-.49l6.541-.404m2.366 11.145v7.716m-.603 8.903c.129 2.274.258 4.547.385 6.821m-.225 10.699l-.79 11.561m.644 4.759l-.381 7.119m.09 6.831a24.13 24.13 0 0 0-.279 6.229M7.903 85.595l7.115-.236m10.089.426a36.612 36.612 0 0 1 7.725-.542m12.772-1.158a21.135 21.135 0 0 1 6.819-.931m7.421 1.241a40.353 40.353 0 0 1 6.226-.351m7.704.191l8.316-.834m5.954.994a32.754 32.754 0 0 1 6.819-.331m3.571-.579a17.632 17.632 0 0 1 5.335-.627m1.535.597a23.33 23.33 0 0 1 .222 5.646m-.852 7.124l-.389 6.228m-.141 6.542l-.323 6.231m-.347 6.819v6.232m-48.98-100.91l-7.124 8.012m.194-9.997l9.746 11.059m2.974-1.604a21.582 21.582 0 0 1 3.178-5.721 56.698 56.698 0 0 0 .52 12.844m43.582 16.817L98.09 70.283c.014-.256.026-.514.039-.771m1.095-9.983a23.56 23.56 0 0 1 6.77 9.33m3.68-3.055a14.32 14.32 0 0 1 2.961-.166c.325.015.664.046.944.213.526.317.679 1.032.564 1.636-.114.603-.434 1.145-.655 1.718-.295.763-.393 1.69.099 2.344.49.653 1.722.677 2.003-.09M7.188 67.965c.36-.646 1.603-.143 1.41.571-.191.715-1.519.529-1.506-.211.012-.763 1.311-.949 1.644-.261.333.686-.36 1.563-1.123 1.543-.485-.012-.965-.338-1.092-.806-.127-.469.172-1.029.647-1.126.531-.108 1.074.465.938.99s-.89.76-1.3.407-.294-1.132.203-1.347" stroke="#746661"/><path d="M7.014 69.713c4.091-8.694 12.649-14.419 21.38-18.428 4.006-1.839 8.229-3.434 12.632-3.601 6.584-.25 12.884 2.71 18.37 6.359a71.985 71.985 0 0 1 11.4 9.405c6.287 6.38 11.814 14.235 20.251 17.244 10.129 3.612 21.55-1.042 29.698-8.06 7.59-6.54 13.269-14.976 18.616-23.448a550.45 550.45 0 0 0 21.622-37.43" stroke="#47bbea"/></g><path d="M46.135 47.452c-.264-.376.39-.92.712-.59 1.098.268 1.292 2.027.36 2.667-.933.64-2.366.067-2.79-.98-.416-1.03.136-2.38 1.194-2.719 1.057-.34 2.348.554 2.304 1.664-.045 1.11-1.554 1.877-2.425 1.188-.87-.69-.33-2.427.78-2.42 1.177.008 1.723 1.647 1.192 2.697-.549 1.09-1.947 1.71-3.085 1.275-1.14-.437-1.757-1.953-1.146-3.01.609-1.057 2.358-1.223 3.077-.237.407.559.408 1.42-.09 1.897-.5.479-1.468.367-1.752-.264-.283-.631.435-1.472 1.074-1.207m59.934 32.842c-.265-.377.39-.92.711-.59 1.098.268 1.293 2.026.36 2.666-.932.64-2.366.068-2.79-.98-.415-1.03.136-2.378 1.195-2.718 1.057-.34 2.348.554 2.304 1.664-.046 1.11-1.555 1.877-2.425 1.188-.871-.69-.33-2.428.78-2.42 1.177.007 1.722 1.647 1.192 2.696-.55 1.09-1.947 1.711-3.086 1.276-1.14-.437-1.756-1.954-1.146-3.01.61-1.057 2.358-1.223 3.077-.237.408.559.409 1.419-.09 1.896-.5.48-1.468.367-1.751-.263-.283-.631.434-1.472 1.073-1.207" stroke="#ff249c" stroke-miterlimit="10" stroke-width="1.231" fill="#ff249c"/></svg>