<svg xmlns="http://www.w3.org/2000/svg" width="1280" height="720" viewBox="0 0 1280 720.00001" id="svg3407"><defs id="defs3409"><marker orient="auto" id="Arrow1Lstart" overflow="visible"><path id="path4196" d="M10 0l4-4L0 0l14 4-4-4z" fill-rule="evenodd" stroke="#000" stroke-width=".8pt"/></marker></defs><g id="layer1" transform="translate(0 -332.362)"><g id="g4300" transform="translate(-862.857 -685.714)"><g id="g4184" transform="rotate(-30 1502.857 1378.076)"><path id="polygon" d="M1737.023 1513.272l-234.166 135.196-234.165-135.196V1242.88l234.165-135.196 234.166 135.196z" fill="#47bbea" stroke="#000" stroke-width="2" stroke-linejoin="round"/><path d="M1735.772 1378.076a232.914 232.914 0 0 1-232.915 232.915 232.914 232.914 0 0 1-232.914-232.915 232.914 232.914 0 0 1 232.914-232.914 232.914 232.914 0 0 1 232.915 232.914z" id="internalCircle" fill="none" stroke="#000" stroke-width="3" stroke-linejoin="round" stroke-dasharray="2.99999997,2.99999997"/><path d="M1772.924 1378.076a270.067 270.067 0 0 1-270.067 270.067 270.067 270.067 0 0 1-270.066-270.067 270.067 270.067 0 0 1 270.066-270.066 270.067 270.067 0 0 1 270.067 270.066z" id="externalCircle" fill="none" stroke="#000" stroke-width="3" stroke-linejoin="round" stroke-dasharray="2.99999997,2.99999997"/><path d="M1510.416 1378.076a7.559 7.559 0 0 1-7.559 7.559 7.559 7.559 0 0 1-7.558-7.559 7.559 7.559 0 0 1 7.558-7.558 7.559 7.559 0 0 1 7.559 7.558z" id="center" stroke="#000" stroke-width=".442" stroke-linejoin="round"/><path id="radius" d="M1269.524 1512.476l232.904-134.467" fill-rule="evenodd" stroke="#000" stroke-width="3" stroke-linecap="round" stroke-linejoin="round"/><path id="apothem" d="M1503.437 1379.3l-115.795 200.562" fill="none" fill-rule="evenodd" stroke="#000" stroke-width="3" stroke-linecap="round" stroke-linejoin="round"/><path d="M1375.782 1540.577l23.094 13.333-13.333 23.094-23.094-13.333z" id="angle90" fill="#7ada00" stroke="#7ada00" stroke-width="3" stroke-linecap="round" stroke-linejoin="round"/><g transform="rotate(30)" id="apothemText"><path id="path8246" d="M2005.635 555.732c-1.537 0-2.95.285-4.238.858-1.277.573-2.292 1.354-3.047 2.344-.743.976-1.114 1.994-1.114 3.048h3.633c0-.924.436-1.714 1.309-2.365.872-.65 1.953-.976 3.242-.976 1.471 0 2.585.377 3.34 1.132.755.743 1.133 1.747 1.133 3.01v1.658h-3.516c-3.034 0-5.39.612-7.07 1.836-1.667 1.211-2.5 2.919-2.5 5.12 0 1.81.664 3.307 1.992 4.492 1.341 1.172 3.053 1.757 5.137 1.757 2.33 0 4.335-.874 6.015-2.619.13 1.068.3 1.81.508 2.227h3.789v-.313c-.495-1.145-.742-2.686-.742-4.627v-9.728c-.052-2.135-.768-3.809-2.149-5.02-1.38-1.224-3.287-1.834-5.722-1.834zm1.426 11.27h2.832v4.334c-.456.937-1.192 1.7-2.207 2.285a6.352 6.352 0 0 1-3.223.881c-1.185 0-2.155-.32-2.91-.957-.756-.638-1.133-1.524-1.133-2.656 0-2.591 2.213-3.887 6.64-3.887z"/></g><g transform="rotate(30)" style="line-height:125%;-inkscape-font-specification:'Roboto, Normal';text-align:start" id="centerText" font-weight="400" font-size="40" font-family="Roboto" letter-spacing="0" word-spacing="0"><path d="M1999.162 413.463q0 4.18-1.406 7.305-1.407 3.105-3.985 4.746-2.578 1.64-6.015 1.64-3.36 0-5.957-1.64-2.598-1.66-4.043-4.707-1.426-3.066-1.465-7.09v-2.05q0-4.102 1.426-7.247 1.425-3.144 4.023-4.804 2.617-1.68 5.977-1.68 3.418 0 6.015 1.66 2.617 1.64 4.024 4.785 1.406 3.125 1.406 7.285v1.797zm-3.73-1.836q0-5.058-2.032-7.754-2.031-2.714-5.683-2.714-3.555 0-5.606 2.714-2.031 2.696-2.09 7.5v2.09q0 4.903 2.051 7.715 2.07 2.793 5.684 2.793 3.633 0 5.625-2.637 1.992-2.656 2.05-7.597v-2.11z" style="" id="path4301"/></g><g id="slice" fill-rule="evenodd" stroke="#000" stroke-width="3" stroke-linecap="round"><path id="path4159" d="M1321.25 1553.052c30.559-13.71 31.212-13.332 31.212-13.332"/><path id="path4159-2" d="M1427.44 1614.362c30.56-13.71 31.213-13.333 31.213-13.333"/></g><g transform="rotate(30)" style="line-height:125%;-inkscape-font-specification:'Roboto, Normal';text-align:start" id="radiusText" font-weight="400" font-size="40" font-family="Roboto" letter-spacing="0" word-spacing="0"><path id="path8239" style="" d="M1911.418 525.166c-2.175 0-3.854.944-5.04 2.832l-.058-2.441h-3.516v21.132h3.614v-15c.846-2.018 2.454-3.027 4.824-3.027.638 0 1.23.046 1.777.137v-3.36c-.365-.182-.898-.273-1.601-.273z"/></g></g></g></g></svg>