<svg id="svg6035" xmlns="http://www.w3.org/2000/svg" height="145.996" width="172.305" viewBox="0 0 161.53684 136.87241"><g id="layer1" transform="translate(-54.946 -25.355)"><g id="g3587" transform="translate(4.034 -.31)"><path id="path400" d="M-154.41 337.62c.494.003 1.029 0 1.5.17.091.032.18.074.268.113.095.04-.125-.044.048.014.165.055.252.046.483.048.801.008.803 1.25 0 1.242a2.784 2.784 0 0 1-1.12-.215c-.09-.038.117.041-.055-.02a1.724 1.724 0 0 0-.233-.06c-.288-.061-.6-.047-.891-.05-.801-.003-.802-1.247 0-1.242" transform="matrix(.75102 0 0 -.75102 190.47 391.69)" fill="#0e799e"/><g id="g418" transform="matrix(.45057 0 0 -.45057 81.653 134.3)"><path id="path420" d="M0 0c9.208 5.064 17.954 12.89 26.701 19.335 9.667 6.445 19.335 14.271 28.081 22.097 10.862-1.918 20.716-1.381 29.463-2.302 10.128-.921 20.716-1.381 30.843-1.381 10.589 0 21.177.92 31.765 1.381 5.984.46 18.414.921 18.414.921s10.128-6.445 15.191-10.128c14.731-9.668 29.924-18.414 42.813-30.383-5.984-8.747-18.414-16.112-27.16-21.638-9.207-5.523-18.593-12.427-28.72-15.65-10.128-3.684-26.766-2.65-36.05-2.236-10.159.455-34.437 1.646-46.405 2.451-15.165 1.021-22.788-5.28-35.678 3.008C31.766-23.479 15.193-13.35.001 0" fill="#43af4a"/></g><g id="g422" transform="matrix(.45057 0 0 -.45057 81.896 134.42)"><path id="path424" d="M0 0c5.185 19.014 16.793 35.238 26.116 52.344 4.775 8.762 8.904 17.832 13.833 26.522 5.129 9.043 10.611 17.882 15.951 26.799 21.016 35.094 34.537 74.313 57.703 108.15l-1.627-.209c5.808-7.208 8.737-15.864 12.338-24.265 3.782-8.821 8.438-17.24 13.04-25.652 9.807-17.926 18.521-36.432 28.271-54.404 9.895-18.236 19.988-36.356 29.325-54.888 9.35-18.56 18.187-37.374 27.348-56.027l.372 1.418c-8.192-5.577-15.448-12.362-23.5-18.127-7.707-5.516-16.563-10.14-24.849-14.763-9.913-5.532-21.228-5.53-32.293-5.676-11.807-.158-23.616.56-35.401 1.187-9.53.508-19.064.861-28.602 1.171-8.205.266-17.104-.316-25.073 1.831-4.527 1.22-8.367 4.316-12.186 6.883-4.532 3.045-8.954 6.254-13.37 9.462C18.24-11.593 9.163-4.807-.469 1.165-1.608 1.871-2.647.078-1.515-.624c9.631-5.971 18.719-12.747 27.872-19.413 7.776-5.663 15.888-12.739 24.952-16.197 7.43-2.834 16.662-1.923 24.456-2.187 10.294-.348 20.583-.702 30.869-1.245 11.794-.623 23.586-1.261 35.401-1.189 9.66.06 20.382-.123 29.345 3.987 4.105 1.882 7.917 4.24 11.751 6.614 4.685 2.9 9.648 5.291 14.302 8.236 9.321 5.898 17.18 13.812 26.289 20.013.493.335.635.883.372 1.417-9.162 18.653-18.028 37.451-27.348 56.027-9.596 19.124-20.049 37.791-30.25 56.594-9.739 17.951-18.445 36.426-28.242 54.336-4.789 8.752-9.497 17.54-13.287 26.78-3.165 7.719-6.234 15.359-11.52 21.918-.447.555-1.285.289-1.627-.21-23.493-34.33-37.316-74.12-58.64-109.73-5.34-8.919-10.782-17.775-15.911-26.818-4.899-8.636-8.977-17.674-13.724-26.385C14.381 35.109 3.111 19.234-1.988.538-2.34-.753-.341-1.3.01-.013" fill="#0e799e"/></g><g id="g426" transform="matrix(.45057 0 0 -.45057 132.44 38.345)"><path id="path428" d="M0 0c-7.857-42.686-21.927-83.84-31.699-126.06-4.825-20.851-7.693-42.125-12.26-63.042-2.273-10.413-5.117-20.697-7.679-31.041-2.272-9.175-5.917-18.112-7.636-27.391-.243-1.305 1.753-1.863 1.997-.55 1.613 8.703 5.124 16.964 7.194 25.577 2.491 10.366 5.32 20.647 7.713 31.038 4.808 20.876 7.708 42.102 12.257 63.024 4.657 21.42 10.898 42.734 16.781 63.851C-7.438-43.442-1.979-22.151 1.998-.546 2.238.75.242 1.307 0-.005" fill="#0e799e"/></g><g id="g430" transform="matrix(.45057 0 0 -.45057 132.23 38.801)"><path id="path432" d="M0 0c2.106-10.084 5.482-19.852 7.303-30 .971-5.411 1.46-10.773 2.744-16.144 1.246-5.216 2.761-10.358 3.881-15.606 2.234-10.478 3.722-21.115 6.012-31.596 2.406-11.004 5.107-21.942 7.766-32.886 5.334-21.959 10.997-43.933 15.216-66.138 1.907-10.035 2.966-20.287 5.681-30.149 2.348-8.532 2.798-18.322 6.908-26.22.616-1.186 2.405-.138 1.789 1.045-2.127 4.089-2.907 8.481-3.648 12.98-.821 4.985-2.196 9.636-3.533 14.493-2.712 9.854-3.654 20.268-5.56 30.301-4.214 22.176-9.971 44.127-15.297 66.056-5.057 20.818-9.281 41.643-13.337 62.664-1.945 10.081-4.744 19.785-6.342 29.954C7.887-20.447 4.228-10.12 1.997.557 1.724 1.864-.272 1.309 0 .006" fill="#0e799e"/></g><g id="g434" transform="matrix(.45057 0 0 -.45057 106.71 114.38)"><path id="path436" d="M0 0c9.04 26.147 13.441 34.972 18.965 53.846 7.826 26.7 15.837 50.603 24.246 76.727 3.624 11.26 7.366 23.938 14.424 37.441" stroke="#0e799e" stroke-linecap="round" stroke-miterlimit="10" stroke-dasharray="7.366" stroke-width="1.841" fill="none"/></g><g id="g438" transform="matrix(.45057 0 0 -.45057 132.89 38.469)"><path id="path440" d="M0 0c-.421 2.314 3.284-8.164 7.366-20.408 1.841-5.064 3.682-8.134 5.063-13.658 3.223-11.049 6.453-21.127 10.129-32.378 7.835-23.982 7.853-23.715 15.65-49.235 2.743-8.98 5.165-20.381 7.904-29.89 1.825-6.333 2.89-15.503 4.987-23.994" stroke="#0e799e" stroke-linecap="round" stroke-miterlimit="10" stroke-dasharray="7.366" stroke-width="1.841" fill="none"/></g><g id="g442" transform="matrix(.45057 0 0 -.45057 132.68 40.128)"><path id="path444" d="M0 0c.102-1.227.196-2.451.281-3.672" stroke="#0e799e" stroke-linecap="round" stroke-miterlimit="10" stroke-width="1.841" fill="none"/></g><g id="g446" transform="matrix(.45057 0 0 -.45057 132.99 45.009)"><path id="path448" d="M0 0c.8-18.252-.222-36.074-2.53-54.538-1.381-11.969.461-24.859 1.381-36.368 1.381-13.81-.46-29.155 1.381-42.966 1.381-13.35 0-22.864-.46-39.437-.219-7.892-.904-15.311-.979-23.571" stroke="#0e799e" stroke-linecap="round" stroke-miterlimit="10" stroke-dasharray="7.171, 7.171" stroke-width="1.841" fill="none"/></g><g id="g450" transform="matrix(.45057 0 0 -.45057 132.45 135.33)"><path id="path452" d="M0 0c.017-1.206.049-2.432.1-3.682" stroke="#0e799e" stroke-linecap="round" stroke-miterlimit="10" stroke-width="1.841" fill="none"/></g><g id="g454" transform="matrix(.45057 0 0 -.45057 133.54 34.86)"><path id="path456" d="M0 0c.973 4.108 2.629 7.95 4.5 11.722H2.71c1.438-2.321 2.051-5.205 2.775-7.809.325-1.165.554-3.826 1.74-4.532C8.376-1.304 9.417.487 8.271 1.17c.343-.205.294-.374.137.076-.158.448-.281.911-.411 1.368-.325 1.138-.632 2.281-.956 3.419-.646 2.271-1.287 4.709-2.541 6.735-.386.621-1.431.723-1.79 0C.764 8.841-.985 4.829-1.997.551-2.305-.749-.308-1.3 0 0" fill="#0e799e"/></g><g id="g458" transform="matrix(.45057 0 0 -.45057 133.59 33.526)"><path id="path460" d="M0 0c1.912-.442 3.846-.496 5.8-.497 1.336-.001 1.336 2.071 0 2.071-1.769.001-3.517.023-5.249.424C-.75 2.298-1.301.301 0 0" fill="#0e799e"/></g><g id="g462" transform="matrix(.45057 0 0 -.45057 186.39 133.29)"><path id="path464" d="M0 0c1.945 2.649 9.872-4.515 2.053-6.305-1.149-.262-.885-2.053.275-2.034 1.499.025 3.697-.078 3.768-2.036.061-1.71-1.828-3.065-3.204-3.618-.916-.368-1.888-.388-2.855-.346-1.229.053-.949 3.847-.995 4.769C-1.125-6.259-.705-2.958.104.248c.328 1.295-1.67 1.845-1.998.55-1.354-5.36-1.405-10.763-.497-16.203.056-.33.404-.656.724-.724 3.565-.76 8.247.324 9.535 4.24C9.146-8 5.73-6.21 2.328-6.268l.276-2.034c10.999 2.517.198 15.598-4.393 9.348C-2.581-.033-.782-1.064 0 0" fill="#0e799e"/></g><g id="g466" transform="matrix(.45057 0 0 -.45057 159.31 154.5)"><path id="path468" d="M0 0c-2.563-2.687-3.625-6.925-.207-9.446 3.325-2.451 7.595-1.061 9.958 1.997.806 1.043-.648 2.52-1.464 1.465-1.689-2.185-4.346-3.5-6.949-2.019-2.754 1.566-1.619 4.709.127 6.538C2.387-.499.924.968 0 0" fill="#0e799e"/></g><g id="g470" transform="matrix(.45057 0 0 -.45057 102.69 153.21)"><path id="path472" d="M0 0c2.981-.895 6.612-3.397 5.078-6.995-1.516-3.556-5.75-2.901-8.423-1.24l.372-1.417C-1.561-6.433.157-3.381 2.091-.445 2.828.674 1.033 1.71.302.6c-1.934-2.935-3.651-5.987-5.064-9.207-.232-.528-.15-1.093.371-1.417 3.743-2.325 9.051-2.483 11.258 1.983C9.252-3.214 4.79.725.551 1.998-.732 2.383-1.276.384 0 0" fill="#0e799e"/></g><g id="g474" transform="matrix(.45057 0 0 -.45057 74.394 135.18)"><path id="path476" d="M0 0c2.33.093 4.578.827 6.905.921 1.33.053 1.34 2.103 0 2.071-2.433-.058-4.798-.483-7.18-.957-.488-.098-.706-.561-.761-.999-.474-3.835-.906-7.675-1.381-11.509-.051-.413.351-.936.761-.999 2.336-.358 5.195-.243 7.479.451.775.235 1.123 1.514.248 1.893l-.024.01c-1.212.526-2.268-1.258-1.046-1.789l.024-.01.247 1.894c-1.904-.58-4.416-.752-6.377-.451l.76-.999C.13-6.639.561-2.799 1.036 1.036L.275.037c2.201.438 4.38.83 6.63.884v2.071C4.576 2.899 2.327 2.165 0 2.071-1.331 2.018-1.336-.054 0 0" fill="#0e799e"/></g><g id="g686" transform="matrix(.45057 0 0 -.45057 164.9 39.261)"><path id="path688" d="M0 0c14.589-.026 29.293-.732 43.775 1.417 1.318.196.756 2.192-.55 1.999C28.938 1.294 14.39 2.046 0 2.071-1.336 2.074-1.336.002 0 0" fill="#0e799e"/></g><g id="g690" transform="matrix(.45057 0 0 -.45057 166.01 43.383)"><path id="path692" d="M0 0c2.016-5.222 4.504-10.197 7.012-15.196.439-.875 1.605-.518 1.893.248 2.224 5.915 1.981 12.474 1.975 18.697L9.844 2.713c9.936-.247 19.905.298 29.824-.468 1.333-.103 1.323 1.969 0 2.071-9.919.766-19.888.222-29.824.468-.565.014-1.036-.481-1.036-1.035.005-6.049.259-12.4-1.901-18.146l1.894.247C6.372-9.311 3.95-4.506 1.998.551 1.522 1.783-.481 1.248 0 0" fill="#0e799e"/></g><g id="g694" transform="matrix(.45057 0 0 -.45057 175.34 46.452)"><path id="path696" d="M0 0a175.577 175.577 0 0 1 9.979-7.375c1.105-.758 2.14 1.038 1.045 1.789a168.253 168.253 0 0 0-9.559 7.051C.431 2.287-1.046.832 0 0" fill="#0e799e"/></g><g id="g698" transform="matrix(.45057 0 0 -.45057 179.6 45.858)"><path id="path700" d="M0 0c-3.317-2.406-6.104-4.823-8.808-7.902-.878-.999.582-2.471 1.465-1.465 2.585 2.945 5.214 5.276 8.388 7.578C2.115-1.013 1.083.786 0 0" fill="#0e799e"/></g><g id="g702" transform="matrix(.45057 0 0 -.45057 175.8 30.322)"><path id="path704" d="M0 0c-5.474 4.645-11.174-3.831-8.662-8.885.981-1.976 3.522-1.535 5.022-.565C-.643-7.509.239-3.467.32-.161c.033 1.342-2.002 1.326-2.072 0-.197-3.768 1.522-8.1 5.206-9.655C6.93-11.285 8.504-7.9 8.605-4.994c.046 1.336-2.025 1.332-2.072 0-.1-2.899-1.596-3.895-3.822-1.878C.853-5.188.193-2.574.32-.161h-2.072c-.055-2.256-.479-4.335-1.724-6.242-.561-.86-2.027-2.306-3.178-1.691-2.124 1.136 1.172 10.038 5.189 6.629C-.453-2.324 1.021-.866 0 0" fill="#0e799e"/></g></g></g></svg>