<svg xmlns="http://www.w3.org/2000/svg" height="145.996" width="172.305" viewBox="0 0 161.53684 136.87241"><path d="M23.593 112.465c.371-.002.773 0 1.127-.127.068-.025.134-.056.201-.085.071-.03-.094.033.036-.01.124-.042.19-.035.363-.037.602-.006.603-.94 0-.933a2.091 2.091 0 0 0-.842.162c-.066.029.089-.031-.041.015a1.5 1.5 0 0 1-.175.046c-.216.045-.45.034-.669.036-.601.003-.602.937 0 .933" fill="#0e799e"/><path d="M30.741 108.635c4.149-2.282 8.09-5.808 12.03-8.712 4.357-2.904 8.713-6.43 12.653-9.956 4.894.864 9.334.622 13.275 1.037 4.564.415 9.334.622 13.897.622 4.771 0 9.542-.414 14.313-.622 2.696-.207 8.297-.415 8.297-.415s4.563 2.904 6.844 4.563c6.638 4.356 13.483 8.297 19.29 13.69-2.696 3.941-8.296 7.26-12.237 9.75-4.148 2.488-8.378 5.599-12.94 7.05-4.564 1.66-12.06 1.195-16.243 1.008-4.578-.205-15.517-.741-20.91-1.104-6.832-.46-10.267 2.379-16.075-1.355-7.881-4.977-15.348-9.541-22.193-15.556" fill="#43af4a"/><path d="M30.984 108.755c2.336-8.567 7.567-15.877 11.767-23.585 2.152-3.948 4.012-8.035 6.233-11.95 2.311-4.074 4.781-8.057 7.187-12.075 9.47-15.812 15.561-33.483 26-48.729l-.734.094c2.617 3.248 3.937 7.148 5.56 10.933 1.703 3.975 3.801 7.768 5.875 11.558 4.419 8.077 8.345 16.416 12.738 24.513 4.458 8.217 9.006 16.381 13.213 24.731 4.213 8.363 8.194 16.84 12.322 25.244l.168-.639c-3.691 2.513-6.96 5.57-10.589 8.168-3.472 2.485-7.463 4.568-11.196 6.651-4.466 2.493-9.565 2.492-14.55 2.558-5.32.071-10.64-.252-15.95-.535-4.295-.229-8.59-.388-12.888-.528-3.697-.12-7.707.143-11.297-.825-2.04-.55-3.77-1.944-5.49-3.1-2.043-1.373-4.035-2.819-6.025-4.264-4.125-2.997-8.215-6.054-12.555-8.745-.513-.318-.981.49-.471.806 4.339 2.69 8.434 5.743 12.558 8.747 3.504 2.551 7.159 5.74 11.242 7.298 3.348 1.277 7.508.866 11.02.985 4.638.157 9.274.316 13.908.561 5.314.28 10.627.568 15.95.536 4.353-.027 9.184.055 13.223-1.797 1.85-.848 3.567-1.91 5.295-2.98 2.11-1.306 4.347-2.384 6.444-3.71 4.2-2.658 7.74-6.224 11.845-9.018a.478.478 0 0 0 .167-.638c-4.128-8.405-8.123-16.875-12.322-25.244-4.324-8.617-9.033-17.028-13.63-25.5-4.388-8.088-8.31-16.412-12.725-24.482-2.157-3.944-4.279-7.903-5.986-12.066-1.426-3.478-2.81-6.92-5.191-9.876-.201-.25-.579-.13-.733.095-10.585 15.468-16.814 33.396-26.421 49.44-2.407 4.02-4.859 8.01-7.17 12.084-2.207 3.891-4.044 7.963-6.183 11.888-4.13 7.577-9.207 14.73-11.505 23.153-.158.582.743.828.9.249" fill="#0e799e"/><path d="M81.528 12.68c-3.54 19.233-9.88 37.775-14.282 56.799-2.174 9.394-3.467 18.98-5.524 28.404-1.025 4.692-2.306 9.326-3.46 13.987-1.024 4.134-2.666 8.16-3.44 12.341-.11.588.789.84.899.248.727-3.921 2.309-7.644 3.241-11.524 1.123-4.67 2.397-9.303 3.476-13.985 2.166-9.406 3.473-18.97 5.522-28.397 2.098-9.651 4.91-19.254 7.561-28.77 2.656-9.53 5.116-19.123 6.907-28.857.109-.584-.79-.835-.9-.244" fill="#0e799e"/><path d="M81.318 13.136c.95 4.543 2.47 8.944 3.29 13.517.438 2.438.659 4.854 1.237 7.274.561 2.35 1.244 4.667 1.749 7.031 1.006 4.721 1.677 9.514 2.709 14.237 1.084 4.958 2.3 9.886 3.499 14.817 2.403 9.894 4.955 19.795 6.856 29.8.859 4.521 1.336 9.14 2.56 13.584 1.057 3.844 1.26 8.255 3.112 11.814.277.534 1.083.062.806-.47-.959-1.843-1.31-3.822-1.644-5.85-.37-2.245-.99-4.34-1.592-6.53-1.222-4.44-1.646-9.131-2.505-13.652-1.899-9.992-4.492-19.882-6.892-29.763-2.279-9.38-4.182-18.763-6.01-28.234-.876-4.543-2.137-8.915-2.857-13.497-.764-4.865-2.413-9.519-3.418-14.33-.123-.588-1.022-.338-.9.249" fill="#0e799e"/><path d="M55.798 88.715c4.073-11.781 6.056-15.758 8.545-24.262 3.526-12.03 7.136-22.8 10.925-34.57 1.633-5.074 3.319-10.786 6.499-16.87m.211-.209c-.19-1.043 1.48 3.678 3.32 9.195.829 2.282 1.658 3.665 2.28 6.154 1.453 4.978 2.908 9.519 4.564 14.588 3.53 10.806 3.538 10.686 7.052 22.184 1.235 4.046 2.327 9.183 3.56 13.468.823 2.853 1.303 6.985 2.248 10.81" stroke="#0e799e" stroke-linecap="round" stroke-miterlimit="10" stroke-dasharray="7.366" stroke-width=".829" fill="none"/><path d="M81.768 14.463c.046.553.089 1.104.127 1.654" stroke="#0e799e" stroke-linecap="round" stroke-miterlimit="10" stroke-width=".829" fill="none"/><path d="M82.078 19.344c.36 8.224-.1 16.254-1.14 24.573-.622 5.393.208 11.2.622 16.386.623 6.223-.207 13.137.623 19.36.622 6.015 0 10.301-.208 17.769-.098 3.555-.407 6.898-.44 10.62" stroke="#0e799e" stroke-linecap="round" stroke-miterlimit="10" stroke-dasharray="7.171, 7.171" stroke-width=".829" fill="none"/><path d="M81.538 109.665c.008.543.022 1.095.045 1.659" stroke="#0e799e" stroke-linecap="round" stroke-miterlimit="10" stroke-width=".829" fill="none"/><path d="M82.628 9.195c.439-1.851 1.185-3.582 2.028-5.282h-.807c.648 1.046.924 2.345 1.25 3.519.147.525.25 1.724.785 2.042.518.308.987-.499.47-.806.155.092.133.168.063-.035-.072-.202-.127-.41-.186-.616-.146-.513-.284-1.028-.43-1.54-.291-1.024-.58-2.122-1.145-3.035-.174-.28-.645-.326-.807 0-.877 1.77-1.665 3.577-2.12 5.504-.14.586.76.834.9.249" fill="#0e799e"/><path d="M82.678 7.86c.862.2 1.733.224 2.614.225.601 0 .601-.933 0-.933-.798 0-1.585-.01-2.366-.192-.586-.135-.834.765-.248.9m52.8 99.765c.877-1.194 4.448 2.034.925 2.84-.517.119-.399.926.124.917.676-.011 1.666.035 1.698.917.027.77-.824 1.381-1.444 1.63-.412.166-.85.175-1.286.156-.554-.023-.428-1.733-.448-2.148-.076-1.492.114-2.98.478-4.424.148-.584-.752-.831-.9-.248-.61 2.415-.633 4.85-.224 7.3.025.15.182.296.326.327 1.606.342 3.716-.146 4.296-1.91.576-1.753-.963-2.56-2.496-2.533l.124.916c4.956-1.134.09-7.028-1.979-4.212-.357.487.454.951.806.472m-27.08 21.21c-1.155 1.21-1.633 3.12-.093 4.256 1.498 1.104 3.422.478 4.487-.9.363-.47-.292-1.135-.66-.66-.76.984-1.958 1.577-3.13.91-1.242-.706-.73-2.122.056-2.946.416-.435-.243-1.096-.66-.66m-56.62-1.29c1.343.403 2.98 1.53 2.288 3.151-.683 1.603-2.59 1.308-3.795.56l.168.638a27.978 27.978 0 0 1 2.281-4.149c.332-.504-.476-.97-.806-.47a27.974 27.974 0 0 0-2.281 4.148c-.105.238-.068.492.167.638 1.686 1.048 4.078 1.119 5.072-.893 1.075-2.175-.936-3.95-2.846-4.524-.578-.173-.823.728-.248.9m-28.296-18.029c1.05-.042 2.063-.373 3.111-.415.6-.024.604-.948 0-.933-1.096.026-2.161.217-3.235.43-.22.045-.318.254-.343.45-.213 1.729-.408 3.459-.622 5.187-.023.186.158.421.343.45 1.053.16 2.34.11 3.37-.204.35-.105.506-.682.112-.852l-.011-.005c-.546-.237-1.022.567-.471.806l.01.005.112-.854c-.858.262-1.99.339-2.874.203l.343.45c.214-1.727.408-3.457.622-5.185l-.343.45c.992-.197 1.974-.374 2.987-.398v-.933c-1.049.041-2.062.372-3.11.415-.6.023-.603.957 0 .933m90.505-95.919c6.574.011 13.199.33 19.724-.639.594-.088.34-.987-.248-.9-6.437.956-12.992.617-19.476.606-.602-.002-.602.932 0 .933m1.11 4.122c.909 2.353 2.03 4.594 3.16 6.847.197.394.723.233.853-.112 1.002-2.665.892-5.62.89-8.424l-.467.466c4.476.112 8.968-.134 13.437.211.601.047.597-.887 0-.933-4.469-.345-8.96-.1-13.437-.21a.47.47 0 0 0-.467.466c.002 2.725.117 5.587-.857 8.176l.854-.112c-1.095-2.18-2.186-4.345-3.066-6.624-.214-.555-1.117-.314-.9.249" fill="#0e799e"/><path d="M124.428 20.787a79.11 79.11 0 0 0 4.496 3.323c.498.341.965-.468.471-.806a75.81 75.81 0 0 1-4.307-3.177c-.466-.37-1.131.285-.66.66" fill="#0e799e"/><path d="M128.688 20.193c-1.494 1.084-2.75 2.173-3.968 3.56-.396.45.262 1.113.66.66 1.164-1.327 2.349-2.377 3.779-3.414.482-.35.017-1.16-.47-.806m-3.801-15.536c-2.466-2.093-5.034 1.726-3.903 4.003.442.89 1.587.692 2.263.255 1.35-.875 1.748-2.696 1.784-4.186.015-.604-.902-.597-.933 0-.089 1.698.686 3.65 2.345 4.35 1.567.662 2.276-.863 2.321-2.172.021-.602-.912-.6-.933 0-.045 1.306-.72 1.755-1.722.846-.837-.759-1.135-1.937-1.078-3.024h-.933c-.025 1.017-.216 1.953-.777 2.813-.253.387-.913 1.039-1.432.762-.957-.512.528-4.523 2.338-2.987.456.387 1.12-.27.66-.66" fill="#0e799e"/></svg>