<svg xmlns="http://www.w3.org/2000/svg" width="1280" height="720" viewBox="0 0 1280 720.00001"><path d="M790.136 590.015l-299.294.513-92.975-284.486L639.7 129.707 882.134 305.21z" fill="none" stroke="#000" stroke-width="2"/><path d="M398 306.848h482.348" fill="none"/><text y="441.537" x="630.294" style="line-height:125%;-inkscape-font-specification:'Roboto, Normal';text-align:start" transform="matrix(.979 0 0 1.02145 0 -332.362)" font-weight="400" font-size="76.805" font-family="Roboto" letter-spacing="0" word-spacing="0"><tspan style="line-height:125%;-inkscape-font-specification:'Roboto, Normal';text-align:start" y="441.537" x="630.294">A</tspan></text><text style="line-height:125%;-inkscape-font-specification:'Roboto, Normal';text-align:start" x="898.442" y="623.377" transform="matrix(.979 0 0 1.02145 0 -332.362)" font-weight="400" font-size="76.805" font-family="Roboto" letter-spacing="0" word-spacing="0"><tspan x="898.442" y="623.377">B</tspan></text><text style="line-height:125%;-inkscape-font-specification:'Roboto, Normal';text-align:start" x="798.953" y="960.8" transform="matrix(.979 0 0 1.02145 0 -332.362)" font-weight="400" font-size="76.805" font-family="Roboto" letter-spacing="0" word-spacing="0"><tspan x="798.953" y="960.8">C</tspan></text><text style="line-height:125%;-inkscape-font-specification:'Roboto, Normal';text-align:start" x="461.641" y="956.276" transform="matrix(.979 0 0 1.02145 0 -332.362)" font-weight="400" font-size="76.805" font-family="Roboto" letter-spacing="0" word-spacing="0"><tspan x="461.641" y="956.276">D</tspan></text><text style="line-height:125%;-inkscape-font-specification:'Roboto, Normal';text-align:start" x="362.804" y="621.904" transform="matrix(.979 0 0 1.02145 0 -332.362)" font-weight="400" font-size="76.805" font-family="Roboto" letter-spacing="0" word-spacing="0"><tspan x="362.804" y="621.904">E</tspan></text><path d="M678.659 159.485a47.982 47.982 0 0 1-38.923 19.9 47.982 47.982 0 0 1-38.908-19.928l38.925-28.055z" fill="#47bbea"/></svg>