<svg id="svg6035" xmlns="http://www.w3.org/2000/svg" height="145.996" width="172.305" viewBox="0 0 161.53684 136.87241"><g id="layer1" transform="translate(-54.946 -25.355)"><g id="g730" transform="matrix(.88285 0 0 -.88285 109.93 146.33)"><path id="path732" d="M0 0c3.851-1.955 7.98-4.165 11.124-7.172.964-.923 2.431.54 1.464 1.465C9.31-2.571 5.062-.25 1.046 1.789-.143 2.392-1.191.605 0 0"/></g><path id="path736" d="M119.16 144.31c-2.407 2.438-4.558 5.103-6.617 7.835-.71.943.879 1.853 1.58.924 1.965-2.608 4.034-5.14 6.33-7.466.83-.84-.464-2.134-1.293-1.293"/><g id="g738" transform="matrix(.88285 0 0 -.88285 123.34 138.21)"><path id="path740" d="M0 0c.835.099 2.723.437 3.13-.623.462-1.199-.762-2.891-1.358-3.818-.438-.683.142-1.54.895-1.559 2.336-.058 4.639-.592 6.942.037 1.287.351.741 2.35-.55 1.998-2.092-.572-4.268-.016-6.392.036l.895-1.558C4.587-3.889 5.776-1.755 5.028.188 4.256 2.195 1.803 2.285 0 2.071-1.31 1.916-1.325-.157 0 0"/></g><g id="g750" transform="matrix(.88285 0 0 -.88285 136.63 137.25)"><path id="path752" d="M0 0c1.287-5.397 1.947-10.892 2.63-16.391.134-1.077 1.745-1.507 2.035-.275.49 2.08 2.608 7.475 4.289 3.013 1.542-4.093-3.073-3.879-5.68-3.073-1.279.396-1.822-1.604-.55-1.998 2.449-.757 5.659-1.389 7.591.788 1.283 1.446 1.155 3.742.412 5.401-.671 1.499-2.103 3.121-3.934 2.767-2.716-.525-3.597-4.1-4.126-6.347l2.035-.276C3.996-10.709 3.327-5.026 1.998.551 1.688 1.85-.31 1.299 0 0"/></g><g id="g754" transform="matrix(.88285 0 0 -.88285 151.97 147.89)"><path id="path756" d="M0 0c3.54-1.474 6.804-3.73 9.543-6.399.957-.933 2.423.531 1.465 1.464C7.995-1.998 4.435.381.551 1.998-.682 2.511-1.214.506 0 0"/></g><g id="g758" transform="matrix(.88285 0 0 -.88285 160.25 144.2)"><path id="path760" d="M0 0c-2.096-3.531-3.971-7.208-6.504-10.458-.81-1.04.645-2.517 1.465-1.464C-2.391-8.524-.403-4.738 1.789-1.046 2.473.106.681 1.147 0 0"/></g><g id="g836" fill="#7ada00" transform="matrix(1.0778 .2888 .2888 -1.0778 133.52 124.96)"><path id="path838" d="M0 0c1.045-.279 2.296-.062 3.59.169-.475-2.75-.979-5.669-2.023-8.253C.763-5.496.356-2.692 0 0m-2.018 74.783c2.336-.116 3.748-.414 4.053-3.214.243-2.238.473-4.478.697-6.719.528-5.244.971-10.495 1.346-15.751.767-10.747 1.066-21.529.663-32.298-.172-4.616-.563-9.219-1.098-13.806-.241-2.05-3.958-1.227-4.037.73a3329.38 3329.38 0 0 0-.359 9.471 2941.77 2941.77 0 0 0-1.103 34.892c-.22 8.815-.84 17.873-.162 26.695m1.589 8.724c2.029.209 2.463-2.225 2.419-3.76-1.393.54-3.056.399-4.59.192-.016 1.478.441 3.389 2.171 3.568m-2.377-6.694c.019.369.058.74.104 1.107 2.087.285 5.275.6 5.131-1.971a21.827 21.827 0 0 1-5.235.864m6.535-2.464c.285.076.526.279.593.676.257 1.512.044 2.823-.851 3.763a.94.94 0 0 1 .515.815c.135 2.734-1.091 5.839-4.235 5.911-3.132.071-4.522-3.324-4.342-5.959.009-.129.049-.235.092-.337a1.251 1.251 0 0 1-.115-.422c-.066-1.19-.312-2.368-.066-3.55.083-.402.341-.604.637-.677-1.218-15.389.275-31.346.779-46.721.236-7.202.495-14.404.773-21.604.042-1.087-.13-2.446.163-3.51.081-.293.175-.55.276-.79a1.026 1.026 0 0 1-.122-.629C-1.61-2.827-1.083-7.286.581-11.148c.309-.716 1.381-.585 1.727 0C4.484-7.467 5.058-2.76 5.826 1.379a.983.983 0 0 1-.288.907c2.942 23.922.82 48.207-1.809 72.063"/></g></g></svg>