<svg id="svg6035" xmlns="http://www.w3.org/2000/svg" height="145.996" width="172.305" viewBox="0 0 161.53684 136.87241"><g id="layer1" transform="translate(-54.946 -25.355)"><g fill="#0092d0"><g id="g726" transform="matrix(.83826 0 0 -.83826 74.67 54.159)"><path id="path728" d="M0 0c-2.459.024-5.249-.382-6.766-2.537-.973-1.382-.795-3.392.169-4.723 1.005-1.386 2.64-1.952 4.222-1.207C.055-7.323.682-3.623.999-1.311l-2.035.275c-.221-2.536.011-5.723 2.34-7.276 2.11-1.407 4.407.384 5.591 2.087.764 1.101-1.033 2.135-1.79 1.046-.559-.806-1.781-2.115-2.848-1.289C.752-5.301.891-2.696 1.036-1.036 1.137.122-.84.395-.999-.76c-.238-1.739-.539-4.57-2.105-5.728-.672-.497-1.318-.259-1.77.364-.573.791-.644 1.699-.103 2.542.95 1.48 3.461 1.525 4.977 1.511C1.336-2.084 1.335-.013 0 0"/></g><g id="g730" transform="matrix(.83826 0 0 -.83826 80.938 52.983)"><path id="path732" d="M0 0c3.851-1.955 7.98-4.165 11.124-7.172.964-.923 2.431.54 1.464 1.465C9.31-2.571 5.062-.25 1.046 1.789-.143 2.392-1.191.605 0 0"/></g><path id="path736" d="M89.703 51.061c-2.285 2.314-4.328 4.845-6.283 7.44-.675.895.834 1.759 1.5.876 1.866-2.476 3.83-4.88 6.011-7.088.787-.797-.44-2.026-1.228-1.228"/><g id="g738" transform="matrix(.83826 0 0 -.83826 93.67 45.277)"><path id="path740" d="M0 0c.835.099 2.723.437 3.13-.623.462-1.199-.762-2.891-1.358-3.818-.438-.683.142-1.54.895-1.559 2.336-.058 4.639-.592 6.942.037 1.287.351.741 2.35-.55 1.998-2.092-.572-4.268-.016-6.392.036l.895-1.558C4.587-3.889 5.776-1.755 5.028.188 4.256 2.195 1.803 2.285 0 2.071-1.31 1.916-1.325-.157 0 0"/></g><g id="g742" transform="matrix(.83826 0 0 -.83826 110.72 51.905)"><path id="path744" d="M0 0c.69-3.392 1.319-7.081 2.771-10.248.556-1.212 2.341-.159 1.789 1.046C3.194-6.223 2.647-2.64 1.998.551 1.731 1.859-.265 1.304 0 0"/></g><g id="g746" transform="matrix(.83826 0 0 -.83826 107.64 56.454)"><path id="path748" d="M0 0h10.667c1.336 0 1.336 2.071 0 2.071H0C-1.336 2.071-1.336 0 0 0"/></g><g id="g750" transform="matrix(.83826 0 0 -.83826 123.57 45.199)"><path id="path752" d="M0 0c1.287-5.397 1.947-10.892 2.63-16.391.134-1.077 1.745-1.507 2.035-.275.49 2.08 2.608 7.475 4.289 3.013 1.542-4.093-3.073-3.879-5.68-3.073-1.279.396-1.822-1.604-.55-1.998 2.449-.757 5.659-1.389 7.591.788 1.283 1.446 1.155 3.742.412 5.401-.671 1.499-2.103 3.121-3.934 2.767-2.716-.525-3.597-4.1-4.126-6.347l2.035-.276C3.996-10.709 3.327-5.026 1.998.551 1.688 1.85-.31 1.299 0 0"/></g><g id="g754" transform="matrix(.83826 0 0 -.83826 133.68 54.188)"><path id="path756" d="M0 0c3.54-1.474 6.804-3.73 9.543-6.399.957-.933 2.423.531 1.465 1.464C7.995-1.998 4.435.381.551 1.998-.682 2.511-1.214.506 0 0"/></g><g id="g758" transform="matrix(.83826 0 0 -.83826 141.54 50.677)"><path id="path760" d="M0 0c-2.096-3.531-3.971-7.208-6.504-10.458-.81-1.04.645-2.517 1.465-1.464C-2.391-8.524-.403-4.738 1.789-1.046 2.473.106.681 1.147 0 0"/></g><g id="g762" transform="matrix(.83826 0 0 -.83826 149.8 51.674)"><path id="path764" d="M0 0c.045-3.366.813-6.483 2.037-9.608.481-1.23 2.485-.695 1.998.55C2.878-6.105 2.115-3.186 2.071 0 2.053 1.335-.018 1.336 0 0"/></g><g id="g766" transform="matrix(.83826 0 0 -.83826 146.53 55.865)"><path id="path768" d="M0 0c2.941-.687 5.937-.702 8.941-.703 1.336 0 1.336 2.071 0 2.072-2.817.001-5.631-.015-8.39.629C-.749 2.301-1.301.304 0 0"/></g><g id="g770" transform="matrix(.83826 0 0 -.83826 163.85 51.395)"><path id="path772" d="M0 0c-2.67-.974-5.071-3.302-4.45-6.392.698-3.475 4.179-4.9 7.392-4.977 1.337-.032 1.334 2.04 0 2.072-2.077.049-4.47.698-5.252 2.86-.761 2.108 1.062 3.783 2.861 4.439C1.795-1.544 1.258.458 0 0"/></g><g id="g774" transform="matrix(.83826 0 0 -.83826 174.47 54.188)"><path id="path776" d="M0 0c2.454-.747 5.069-.702 7.608-.703 1.336 0 1.336 2.071 0 2.072-2.359.001-4.778-.066-7.057.629C-.73 2.388-1.274.389 0 0"/></g><g id="g778" transform="matrix(.83826 0 0 -.83826 176.05 60.335)"><path id="path780" d="M0 0c2.321.551 4.462.551 6.783 0 1.299-.308 1.85 1.689.551 1.998-2.679.635-5.206.635-7.885 0C-1.85 1.689-1.299-.308 0 0"/></g><g id="g782" transform="matrix(.83826 0 0 -.83826 194.26 43.541)"><path id="path784" d="M0 0c-9.026-.48-11.454-18.155-1.814-19.256C6.954-20.257 7.016-3.152.523-.141-.681.417-1.734-1.369-.523-1.93c4.477-2.075 5.252-13.229.202-15.184C-6.719-19.592-8.403-2.519 0-2.071 1.329-2 1.335.071 0 0"/></g></g><g id="g7736" opacity=".6" transform="matrix(.95711 0 0 -.95711 126.86 63.874)" fill="#40b4c6"><path id="path7738" d="M-10.942-36.781c-1.075.755-2.393.587-3.585-.293-.973-.719-.316-1.44-.047-2.154.186-.491.44-.956.662-1.434l.324.04 2.646 3.841m12.27 16.464c-.138.202-.192.271-.237.347-.923 1.572-1.333 1.63-2.627.387-.216-.207-.517-.338-.693-.569a228.986 228.986 0 0 1-3.573-4.792 104.034 104.034 0 0 1-2.669-3.915c-.217-.334-.507-1.009-.401-1.099A5.766 5.766 0 0 1-7.095-31c.207-.073.676.31.891.588.675.87 1.263 1.807 1.924 2.688 1.851 2.467 3.723 4.921 5.608 7.407m9.39 4.65c-2.259-.037-5.166-1.32-6.423-2.921-2.245-2.862-4.472-5.743-6.572-8.71-1.25-1.765-2.75-3.351-3.638-5.4-.52-1.2-1.563-2.17-2.344-3.26a615.446 615.446 0 0 1-4.687-6.61c-1.387-1.995-2.714-4.032-4.113-6.018-.691-.982-1.576-1.835-2.213-2.846a116.435 116.435 0 0 1-3.672-6.25c-1.162-2.13-2.186-4.332-2.58-6.762-.192-1.177.586-2.57 1.532-3.238a74.395 74.395 0 0 0 4.568-3.524c1.702-1.415 3.258-3.016 5.022-4.345 2.243-1.688 4.62-3.198 6.958-4.756 1.819-1.212 3.611-2.482 5.518-3.541 2.745-1.527 5.573-2.91 8.388-4.308 1.43-.71 2.832-1.316 4.565-1.292 2.52.034 4.577.895 6.044 2.792 1.792 2.316 3.314 4.842 4.952 7.278 2.077 3.092 4.12 6.207 6.241 9.268 1.503 2.17 3.17 4.226 4.657 6.406 2.794 4.094 5.406 8.293 7.276 12.919 1.135 2.807 2.561 5.494 3.176 8.5.419 2.054.322 3.944-1.277 5.511-1.627 1.595-3.238 3.208-4.885 4.784a19.617 19.617 0 0 1-2.128 1.782c-1.461 1.042-3.018 1.954-4.436 3.046-1.804 1.387-3.506 2.905-5.26 4.355-.394.326-.826.606-1.241.905-1.789 1.292-3.53 2.657-5.385 3.843-.87.558-1.972.743-2.946 1.15-1.713.716-3.4 1.51-5.097 1.241m13.167-63.38c-.564-.167-.353-.49-1.265-2.09-.911-1.6-2.433-3.94-4.145-6.133-1.904-2.438-4.384-3.924-7.622-3.736-2.175.127-4.192.698-6.106 1.825-2.558 1.506-5.258 2.766-7.836 4.24-1.71.978-3.318 2.138-4.962 3.23-1.947 1.294-3.957 2.508-5.808 3.929-2.398 1.842-4.661 3.859-6.99 5.792a261.64 261.64 0 0 1-4.237 3.46c-1.94 1.543-2.448 3.543-1.593 5.764a68.818 68.818 0 0 0 3.18 7.024c.947 1.816 2.115 3.525 3.275 5.22 1.438 2.107 2.982 4.14 4.448 6.23.413.587.877 1.223 1.012 1.898.127.628-.052 1.375-.28 2.003-.3.824-.853 1.557-1.148 2.383-.104.294.134.827.38 1.106 1.437 1.635 3.347 1.718 5.301 1.42.54-.082.849-.021 1.118.44.438.753.917 1.482 1.362 2.23.273.46.296.893-.225 1.223-.527.333-1.021.725-1.574 1.002-.555.278-.732.656-.416 1.156.58.912 1.194 1.805 1.84 2.672a487.38 487.38 0 0 0 5.376 7.11c.511.66 1.124 1.256 1.758 1.801.553.475 1.517.296 2.154-.256.436-.378.906-.715 1.296-1.022 2.12 2.396 4.39 4.314 7.478 4.581 1.768.153 3.626-.037 5.345-.832 1.7-.789 3.551-1.29 5.172-2.207 1.602-.905 2.993-2.179 4.486-3.28 1.27-.938 2.563-1.85 3.83-2.793.935-.693 1.853-1.41 2.766-2.132.964-.763 1.812-1.752 2.889-2.274 2.956-1.43 4.799-4.13 7.268-6.105 1.106-.885 2.037-2.057 2.836-3.242 1.025-1.524.751-3.327.488-5.008-.496-3.168-1.816-6.071-3.191-8.94-.89-1.857-1.652-3.788-2.698-5.552a195.326 195.326 0 0 0-5.924-9.35c-2.06-3.067-4.261-6.04-6.4-9.054-.934-1.319-1.865-2.64-2.639-3.733" fill-rule="evenodd"/></g><g id="g7740" opacity=".6" transform="matrix(.57036 0 0 -.57036 162.58 105.12)" fill="#40b4c6"><path id="path7742" d="M0 0c-.18.571-.277.852-.356 1.138-.476 1.704-1.581 2.858-2.885 4.058-2.168 1.995-4.02 4.341-5.945 6.591-1.863 2.177-3.533 4.531-5.493 6.614-5.794 6.158-12.646 11.04-19.584 15.789-1.391.952-3.008 1.621-4.598 2.214-.672.251-1.717.243-2.297-.119-4.102-2.574-8.089-5.343-10.613-9.63-1.032-1.752-1.967-3.777-.928-5.791.883-1.713 2.007-3.413 3.393-4.73 3.183-3.025 6.528-5.892 9.928-8.672 2.977-2.434 6.104-4.687 9.2-6.973 1.928-1.424 3.916-2.766 5.887-4.13 1.818-1.258 3.612-2.555 5.484-3.726 2.125-1.33 4.273-2.649 6.514-3.767 1.541-.769 3.009-1.216 4.881.073 2.795 1.927 4.26 4.632 5.723 7.442C-1.047-2.384-.509-1.096 0 0m-55.547 22.131c.401 2.665.861 4.937 2.786 6.683.891.81 1.333 2.119 2.231 2.917 2.43 2.159 4.879 4.337 7.552 6.17 1.689 1.159 3.714 1.107 5.769.189 4.381-1.959 7.988-5.023 11.729-7.883 3.704-2.832 7.329-5.787 10.81-8.887 2.233-1.99 4.277-4.233 6.164-6.559 2.568-3.167 5.217-6.235 8.156-9.066C.58 4.8 1.274 3.64 1.983 2.54c1.114-1.733.42-3.499-.332-5.053C.517-4.854-.687-7.236-2.3-9.25c-1.481-1.85-3.403-3.442-5.388-4.762-1.796-1.196-3.879-.486-5.582.532-5.522 3.3-11.068 6.579-16.41 10.158-4.176 2.798-8.523 5.399-11.885 9.338-1.724 2.019-4.171 3.403-6.134 5.243-2.447 2.296-4.877 4.645-7.007 7.226-.761.923-.623 2.586-.841 3.646" fill-rule="evenodd"/></g><g id="g7744" opacity=".6" transform="matrix(.57036 0 0 -.57036 152.81 120.55)" fill="#a3df4f"><path id="path7746" d="M0 0c-.24-.083-.739-.133-1.075-.392-1.66-1.279-3.63-2.353-4.842-3.982-3.24-4.351-6.085-8.994-9.211-13.433-2.146-3.045-2.416-5.87.055-8.879 1.024-1.248 1.936-1.53 2.941-.2 2.364 3.128 4.621 6.336 6.947 9.492 2.654 3.6 5.364 7.156 7.99 10.776.861 1.188 1.94 2.385 1.143 4.096C3.405-1.359 1.444.006 0 0m-19.831-21.913c.894 1.735 1.653 3.603 2.746 5.248 2.668 4.02 5.485 7.944 8.259 11.896C-7.309-2.609-5.618-.647-3.338.808-.995 2.304 1.654 2.263 3.823.613 5.181-.421 5.957-1.853 6.576-3.292c.31-.72-.052-1.977-.522-2.736-1.025-1.656-2.328-3.137-3.491-4.71a946.604 946.604 0 0 1-4.968-6.805c-2.658-3.667-5.336-7.32-7.95-11.018-1.07-1.512-2.666-1.729-4.249-1.818-.53-.03-1.311.554-1.616 1.07-.886 1.497-1.599 3.099-2.361 4.666-.39.801-.743 1.619-1.25 2.73" fill-rule="evenodd"/></g><g id="g7748" opacity=".6" transform="matrix(.57036 0 0 -.57036 125.96 138.41)" fill="#040c19"><path id="path7750" d="M0 0c.605-.843.95-1.704 1.584-2.132C3.246-3.251 5.035-4.18 6.772-5.186c1.04-.601 2.051-1.261 3.124-1.793 1.637-.811 3.412-1.379 4.961-2.324 3.506-2.137 3.61-2.208 6.435.801a9.587 9.587 0 0 1 1.541 2.224c1.602 3.17 1.459 3.853-1.16 6.234a21.1 21.1 0 0 1-1.888 1.511C15.914 4.243 12.03 7 8.157 9.771c-.95.681-1.688.381-2.348-.436-.913-1.128-1.971-2.166-2.714-3.396C1.987 4.105 1.099 2.138 0 0m18.043-13.65c-1.13.452-2.382.631-3.177 1.329C12-9.805 8.323-8.822 5.159-6.898 3.264-5.745 1.333-4.606-.388-3.223-1.787-2.098-2.203-.355-1.476 1.316-.529 3.5.596 5.618 1.79 7.681c.701 1.21 1.548 2.407 2.574 3.341 1.581 1.438 3.864 1.482 5.539.249C14.39 7.967 18.926 4.717 23.25 1.209c1.325-1.075 2.151-2.856 2.938-4.446.27-.547-.096-1.603-.479-2.243-1.561-2.612-2.663-5.599-5.445-7.287-.633-.383-1.391-.56-2.221-.883" fill-rule="evenodd"/></g><g id="g7752" opacity=".6" transform="matrix(.57036 0 0 -.57036 124.59 127.95)" fill="#40b4c6"><path id="path7754" d="M0 0c-1.757.695-3.27 1.222-4.717 1.889-1.3.598-2.459 1.179-3.964.38-1.404-.748-2.181-1.924-2.835-3.22-.658-1.302-1.121-2.7-1.725-4.032-1.131-2.502-1.608-4.835.725-7.062 1.377-1.313 2.583-1.817 4.13-.708C-4.013-9.617-1.139-5.459 0 0m-9.753-15.638c-2.497-.303-3.526 1.575-4.837 3.096-.54.627-1.36 1.006-1.951 1.6-.315.316-.689.96-.566 1.269 1.46 3.673 3.138 7.264 4.491 10.975 1.001 2.744 3.122 3.367 5.553 3.426.933.023 1.891-.625 2.822-1.008.828-.341 1.6-.877 2.456-1.083C.952 1.98 2.589-.796 1.5-3.38c-1.702-4.041-4.259-7.555-7.374-10.6-.977-.957-2.493-1.359-3.763-2.015l-.116.357" fill-rule="evenodd"/></g><g id="g7756" opacity=".6" transform="matrix(.57036 0 0 -.57036 131.86 111.11)" fill="#40b4c6"><path id="path7758" d="M0 0c.358-.766.496-1.465.913-1.88 1.6-1.591 3.358-3.025 4.915-4.654.705-.737 1.243-.598 1.974-.269 2.797 1.256 4.564 3.644 6.13 6.061.881 1.358 1.722 3.213.329 4.908-.952 1.156-1.938 2.306-3.044 3.31-1.616 1.469-2.545 1.338-4.458.303C4.644 6.634 3.3 4.763 1.811 3.032 1.061 2.159.604 1.035 0 0m-2.39-.295c.345.862.495 1.442.787 1.939 1.575 2.679 3.546 5.012 6.115 6.804.287.199.568.433.78.706 2.285 2.947 5.442 2.362 7.635-.478.64-.829 1.406-1.562 2.101-2.349 2.6-2.94 2.418-4.81.517-7.766-1.523-2.368-3.551-4.475-5.627-6.407-2.432-2.263-3.836-2.18-6.014-.04C2.447-6.455.827-5.173-.508-3.641c-.847.974-1.304 2.287-1.882 3.346" fill-rule="evenodd"/></g><path id="path7762" opacity=".6" d="M123.64 104.08c.187.43.262.82.488 1.079.58.663 1.207 1.29 1.85 1.893.854.8 1.264.857 2.15.085 1.007-.878 2.004-1.799 2.843-2.833 1.232-1.522.558-4.016-1.265-4.778-.452-.19-1.203-.155-1.6.107-1.303.86-2.696 1.65-3.618 2.977-.316.455-.557.961-.848 1.47m3.343 5.125c-.578-.305-1.076-.45-1.411-.768-.953-.9-1.91-1.816-2.735-2.831-.849-1.045-.387-2.219.28-3.087.827-1.078 1.918-1.958 2.924-2.892.397-.37.855-.68 1.313-.978 1.371-.893 2.94-.618 3.923.706.56.755 1.232 1.495 1.531 2.354.213.61.086 1.522-.242 2.098-.91 1.6-2.06 3.044-3.63 4.088-.656.436-1.308.877-1.953 1.31" fill-rule="evenodd" fill="#ff3829"/><g id="g7764" opacity=".6" transform="matrix(.57036 0 0 -.57036 133.55 127.37)" fill="#40b4c6"><path id="path7766" d="M0 0c.042-.212.024-.603.192-.883 1.19-1.988 3.2-2.86 5.184-3.796 1.925-.907 3.442-.165 4.785 1.099 1.13 1.062 2.141 2.255 3.158 3.429 1.306 1.505 1.756 3.2.226 4.736A38.038 38.038 0 0 1 8.51 8.799c-.479.338-1.636.131-2.247-.226a16.094 16.094 0 0 1-3.337-2.585C1.35 4.38.276 2.448 0 0m6.853-7.773C4.066-6.517 1.442-5.694-.415-3.617c-.733.82-1.168 1.936-1.624 2.97-1.073 2.436.736 4.171 1.794 5.905 1.552 2.544 3.703 4.679 6.768 5.394.909.212 2.204.237 2.873-.258 2.236-1.654 4.808-2.942 6.308-5.499.92-1.568 1.296-3.72-.051-5.166-1.709-1.833-3.155-3.932-4.985-5.624C9.644-6.843 8.071-7.2 6.853-7.773" fill-rule="evenodd"/></g><g id="g7768" opacity=".6" transform="matrix(.57036 0 0 -.57036 114.24 113.38)" fill="#604cb5"><path id="path7770" d="M0 0l.351-.237c-.08-1.341.769-2.075 1.816-2.674 1.007-.576 2.052-1.092 3.021-1.726 1.52-.995 3.952-.741 4.965.718.943 1.356 1.773 2.798 2.566 4.25 1.113 2.04.861 3.381-.755 4.975a26.651 26.651 0 0 0-1.823 1.979c-1.699 2.052-3.094 2.168-4.995.255-1.021-1.027-2.019-2.115-2.825-3.311C1.427 2.9.764 1.417 0 0m15.758 2.448c-1.155-3.541-2.76-6.343-5.472-8.393-3.293-2.49-3.591-2.44-6.95-.004-.648.47-1.41.78-2.107 1.185-3.476 2.017-3.75 3.357-2.52 6.76 1.19 3.293 3.651 5.722 5.979 8.194 1.276 1.355 3.356 1.327 4.937.082 1.609-1.266 3.311-2.5 4.608-4.051.857-1.027 1.074-2.588 1.525-3.773" fill-rule="evenodd"/></g><g id="g7772" opacity=".6" transform="matrix(.57036 0 0 -.57036 113.55 120.68)" fill="#e94c0f"><path id="path7774" d="M0 0l.33.49c-1.138.82-2.29 1.62-3.408 2.466-1.186.898-2.154.552-3.264-.258-2.613-1.908-3.983-4.695-5.104-7.513-.826-2.079-1.279-4.415.969-6.315 2.103-1.777 4.515-1.703 6.16.445.518.678 1.241 1.206 1.715 1.906.926 1.37 1.893 2.747 2.553 4.248.445 1.011.935 2.449-1.119 2.658-.384.04-.728.477-1.441.977C-1.538-.527-.769-.264 0 0m-14.152-9.126c.164 3.278.866 5.688 2.362 7.949 1.566 2.366 2.984 4.805 5.577 6.204.424.23 1.046.412 1.471.279C-1.028 4.141 1.661 1.85 2.701-2.01c.148-.547-.411-1.254-.528-1.907-.773-4.32-4.095-6.933-6.812-9.875-1.149-1.243-3.059-.621-4.584-.063-1.168.427-2.531.786-3.333 1.627-.894.937-1.252 2.388-1.596 3.102" fill-rule="evenodd"/></g><g id="g7776" opacity=".6" transform="matrix(.57036 0 0 -.57036 141.62 117.06)" fill="#40b4c6"><path id="path7778" d="M0 0c.412-.627.767-1.57 1.442-2.108 1.281-1.02 2.804-1.734 4.119-2.719 1.084-.811 2.071-.724 3.016.025 2.289 1.818 3.896 4.157 4.88 6.901.23.643.361 1.39.287 2.062-.171 1.553-4.965 4.419-6.355 3.694C4.524 6.361 1.918 4.496.424 1.473.251 1.125.201.715 0 0m-2.313.283c.271.793.35 1.747.852 2.349 1.7 2.043 3.396 4.137 5.383 5.882 2.42 2.126 4.173 1.916 7.236.427 1.336-.649 2.657-1.58 3.598-2.705.643-.767 1.006-2.165.825-3.16-.8-4.408-3.364-7.715-6.969-10.296-1.408-1.009-2.618-.381-3.771.319-1.798 1.089-3.517 2.31-5.26 3.488-1.285.868-1.725 2.148-1.894 3.696" fill-rule="evenodd"/></g><g id="g7780" opacity=".6" transform="matrix(.57036 0 0 -.57036 124.14 120.09)" fill="#40b4c6"><path id="path7782" d="M0 0c.7-.794 1.168-1.643 1.886-2.08 1.757-1.063 3.676-1.859 5.439-2.917 1.032-.619 1.84-.427 2.592.265.73.672 1.422 1.416 1.993 2.224 2.994 4.241 1.973 8.057-2.687 10.209-.137.062-.292.129-.435.123-.767-.03-1.71.188-2.265-.179-1.625-1.075-3.262-2.23-4.567-3.654C1.065 3.019.725 1.543 0 0m15.691 3.145c.164-3.51-2.961-8.739-5.954-10.207-1.391-.682-2.619-.242-3.855.41-1.625.858-3.221 1.791-4.908 2.508-2.016.857-3.088 2.965-2.44 5.119.107.359-.109.84.049 1.152C-.885 3.181-.385 4.296.371 5.18c1.024 1.198 2.325 2.154 3.41 3.306 1.597 1.697 4.291 2.163 6.24.913 1.348-.864 2.709-1.729 3.948-2.737 1.122-.914 1.873-2.121 1.722-3.517" fill-rule="evenodd"/></g></g></svg>