<svg xmlns="http://www.w3.org/2000/svg" height="145.996" width="172.305" viewBox="0 0 161.53684 136.87241"><path d="M54.984 120.975c3.4 1.726 7.045 3.677 9.82 6.332.852.815 2.147-.477 1.293-1.294-2.894-2.768-6.644-4.817-10.19-6.617-1.05-.533-1.974 1.045-.923 1.579"/><path d="M64.214 118.955c-2.407 2.438-4.558 5.103-6.617 7.835-.71.943.879 1.853 1.58.924 1.965-2.608 4.034-5.14 6.33-7.466.83-.84-.464-2.134-1.293-1.293m4.18-6.1c.737-.087 2.404-.386 2.763.55.408 1.059-.672 2.552-1.199 3.37-.386.604.126 1.36.79 1.377 2.063.051 4.096.523 6.13-.033 1.136-.31.653-2.074-.486-1.763-1.847.504-3.768.014-5.643-.032l.79 1.375c.905-1.41 1.954-3.295 1.294-5.01-.682-1.772-2.847-1.851-4.439-1.662-1.157.136-1.17 1.967 0 1.828m13.29-.96c1.136 4.765 1.719 9.616 2.322 14.47.118.952 1.54 1.331 1.796.244.433-1.837 2.303-6.6 3.787-2.66 1.361 3.613-2.713 3.424-5.015 2.713-1.129-.35-1.608 1.416-.485 1.763 2.162.669 4.996 1.227 6.702-.695 1.132-1.277 1.02-3.304.363-4.768-.592-1.324-1.856-2.756-3.473-2.443-2.398.463-3.175 3.62-3.642 5.603l1.796.244c-.623-5.017-1.214-10.034-2.387-14.957-.274-1.147-2.038-.66-1.764.486m15.34 10.64c3.125 1.301 6.007 3.293 8.425 5.65.845.823 2.14-.47 1.293-1.293a29.554 29.554 0 0 0-9.232-6.12c-1.088-.454-1.558 1.316-.486 1.763"/><path d="M105.304 118.845c-1.85 3.117-3.506 6.364-5.742 9.233-.715.918.57 2.222 1.293 1.292 2.338-3 4.093-6.342 6.028-9.602.604-1.017-.978-1.936-1.579-.923"/><path d="M78.574 99.605c1.046.603 2.457.73 3.918.855-1.306 2.826-2.692 5.827-4.564 8.31-.119-3.021.252-6.16.646-9.165m19.422-81.184c2.485.8 3.92 1.529 3.44 4.635a883.585 883.585 0 0 1-1.189 7.443 605.704 605.704 0 0 1-3.098 17.365c-2.277 11.804-5.069 23.512-8.613 35.002-1.519 4.926-3.27 9.774-5.17 14.563-.852 2.14-4.62.18-4.14-1.953.776-3.438 1.56-6.875 2.347-10.311a3282.491 3282.491 0 0 1 8.888-37.925c2.31-9.565 4.257-19.506 7.535-28.819m4.232-8.944c2.248.361 2.012 3.11 1.522 4.751-1.346-.984-3.179-1.312-4.892-1.532.41-1.598 1.454-3.525 3.37-3.219m-4.495 6.529c.127-.393.277-.781.432-1.164 2.332.296 5.859.877 4.961 3.607a24.355 24.355 0 0 0-5.393-2.443m6.332 4.543c.33 0 .648-.15.834-.558.714-1.555.863-3.03.17-4.301.342-.082.654-.301.79-.73.936-2.908.51-6.608-2.857-7.594-3.355-.98-5.834 2.277-6.4 5.169-.028.141-.016.267.001.39a1.396 1.396 0 0 0-.246.421c-.414 1.264-1.02 2.462-1.096 3.807-.027.458.193.75.491.914-5.757 16.234-8.756 33.864-12.653 50.58a4134.164 4134.164 0 0 0-5.407 23.509c-.268 1.184-.846 2.599-.838 3.83.003.34.03.643.07.931a1.145 1.145 0 0 0-.313.643c-.589 4.627-1.308 9.585-.63 14.228.126.861 1.32 1.03 1.861.499 3.408-3.34 5.386-8.247 7.41-12.486.187-.392.125-.76-.049-1.06 10.08-24.934 14.806-51.721 18.862-78.192" fill="#7ada00"/></svg>