<svg xmlns="http://www.w3.org/2000/svg" id="svg2" height="338.96" width="312.08" viewBox="0 0 312.08033 338.96345"><g id="mainLayer" transform="translate(-100.285 201.91) scale(.57693)"><g id="juui-left-leg" transform="matrix(1.25 0 0 -1.25 416.63 91.951)"><path id="juui-leftLeg-path" d="M0 0l-2.835 2.699L.396 34.065c.769 7.463-.327 13.652-2.461 13.808l-.103.011c-2.128.157-4.48-5.771-5.247-13.23l-3.344-32.435-2.31-1.337C-20.461-3.391-25.46-8.039-24.234-9.495l.06-.074c1.062-1.262 6.431.284 12.647 3.492-.257-6.153.813-10.921 2.669-10.978l.105-.002c1.899-.058 3.969 4.588 4.941 10.889 5.233-4.541 10.176-7.262 11.594-6.23l.076.055C9.464-11.179 5.95-5.652 0 0" fill="#ff931e"/></g><g id="juui-right-leg" transform="matrix(1.25 0 0 -1.25 491.78 90.386)"><path id="juui-right-leg-path" d="M0 0l-2.283 1.382L-5 33.58c-.632 7.477-2.852 13.192-4.983 13.052l-.11-.005c-2.127-.142-3.364-5.995-2.735-13.475l2.63-31.145-2.887-2.646c-6.052-5.539-9.673-10.998-8.087-12.193l.079-.063c1.401-1.05 6.389 1.576 11.701 6.016.846-6.375 2.836-11.115 4.752-11.008l.097.037c1.852.106 3.014 4.785 2.872 10.92 6.154-3.321 11.496-4.967 12.576-3.728l.065.076C12.225-9.15 7.315-4.404 0 0" fill="#ff931e"/></g><g id="juui-head" transform="matrix(1.25 0 0 -1.25 325 -214.73)"><path id="juui-head-path" d="M0 0c5.847 4.872 32.151-6.819 32.151-6.819S62.354 8.77 97.424 8.77c35.074 0 59.431-15.589 59.431-15.589s30.202 14.614 36.047 9.743c5.845-4.872-5.885-45.233-5.845-60.406.126-49.159 37.02-171.47-94.503-172.44-131.53-.98-91.379 123.88-89.634 172.44C3.439-43.103-5.847-4.873-.003-.002" fill="#a273d8"/></g><g id="juui-eyeShadow" transform="matrix(1.25 0 0 -1.25 558.82 -142.88)"><path id="juui-eyeShadow-path" d="M0 0c-.003.387.01.801.024 1.218-8.008 16.245-24.725 27.424-44.06 27.424-22.864 0-42.078-15.627-47.544-36.786-5.463 21.159-24.678 36.786-47.543 36.786-20.174 0-37.499-12.171-45.053-29.567-.36-8.028-1.689-18.023-3.105-29.135 4.468-22.52 24.329-39.501 48.158-39.501 22.865 0 42.08 15.63 47.543 36.789 5.466-21.159 24.68-36.789 47.544-36.789 21.888 0 40.424 14.326 46.762 34.111C1.429-21.831.021-9.533-.003 0" fill="#bc94dd"/></g><g id="juui-bellyShadow" transform="matrix(1.25 0 0 -1.25 446.18 -46.671)"><path id="juui-bellyShadow-path" d="M0 0c-41.699 0-75.503-32.933-75.503-73.556 0-.34.021-.676.026-1.013C-60.792-87.592-38.31-95.726-4.384-95.477c40.416.3 64.909 12.067 79.473 29.637C71.128-28.842 39.026 0 0 0" fill="#bc94dd"/></g><g id="juui-leftEye" transform="matrix(1.25 0 0 -1.25 424.87 -124.61)"><path id="juui-leftEye-path" d="M0 0c0-19.369-15.704-35.072-35.074-35.072-19.371 0-35.074 15.703-35.074 35.072 0 19.37 15.703 35.073 35.074 35.073C-15.704 35.073 0 19.37 0 0" fill="#fff"/></g><g id="juui-rightEye" transform="matrix(1.25 0 0 -1.25 551.52 -124.61)"><path id="juui-rightEye-path" d="M0 0c0-19.369-15.703-35.072-35.074-35.072-19.369 0-35.071 15.703-35.071 35.072 0 19.37 15.702 35.073 35.071 35.073C-15.703 35.073 0 19.37 0 0" fill="#fff"/></g><g id="juui-mouth" transform="matrix(1.25 0 0 -1.25 458.96 -96.167)"><path id="juui-mouth-path" d="M0 0c-8.731 10.24-22.519 3.839-23.436 0-.92-3.838 12.696-23.033 12.696-23.033S-.056-3.838 0 0" fill="#f99525"/></g><g id="juui-rightWing" transform="matrix(1.25 0 0 -1.25 532.15 -11.747)"><path id="juui-rightWing-path" d="M0 0c5.386 22.464 13.402 32.234 19.843 35.944C31.5 42.02 44.611 12.177 49.946-6.473c5.989-20.952 6.141-39.362.329-41.117-4.186-1.262-10.332 6.481-15.678 18.757-2.063-13.613-6.036-22.579-10.473-21.92-4.238.632-7.807 9.896-9.567 23.084C9.748-39.912 4.234-47.235.335-45.41-5.233-42.797-5.387-22.467 0 0" fill="#662d91"/></g><g id="juui-leftWing" transform="matrix(1.25 0 0 -1.25 357.89 -10.158)"><path id="juui-leftWing-path" d="M0 0c-4.621 22.635-12.301 32.669-18.615 36.597-11.443 6.466-25.557-22.917-31.522-41.373-6.696-20.739-7.471-39.133-1.723-41.083 4.143-1.405 10.546 6.126 16.307 18.215 1.599-13.675 5.264-22.771 9.724-22.263 4.256.49 8.138 9.629 10.344 22.748 4.39-12.401 9.653-19.907 13.61-18.213C3.779-42.95 4.624-22.637 0 0" fill="#662d91"/></g><g id="juui-bellyThings"><g id="g226" transform="matrix(1.25 0 0 -1.25 444 8.589)"><path id="path228" d="M0 0h-.129c-5.775 0-10.241 3.555-11.38 9.181-.221 1.094.337 2.107 1.25 2.375.908.259 1.829-.451 2.051-1.544.921-4.559 4.943-6.234 8.109-6.266 3.583-.019 7.824 1.901 8.769 6.265.238 1.09 1.166 1.735 2.074 1.452.908-.283 1.451-1.223 1.214-2.313C10.557 2.696 4.965 0 0 0" fill="#d3b7ea"/></g><g id="g230" transform="matrix(1.25 0 0 -1.25 398.72 8.589)"><path id="path232" d="M0 0h-.129c-5.775 0-10.242 3.555-11.38 9.181-.223 1.094.337 2.107 1.249 2.375.909.259 1.829-.451 2.05-1.544.923-4.559 4.946-6.234 8.109-6.266 3.585-.019 7.825 1.901 8.772 6.265.237 1.09 1.163 1.735 2.073 1.452.906-.283 1.451-1.223 1.214-2.313C10.557 2.696 4.965 0 0 0" fill="#d3b7ea"/></g><g id="g234" transform="matrix(1.25 0 0 -1.25 489.29 8.589)"><path id="path236" d="M0 0h-.129c-5.774 0-10.241 3.555-11.38 9.181-.221 1.094.337 2.107 1.25 2.375.91.259 1.829-.451 2.05-1.544.923-4.559 4.944-6.234 8.11-6.266 3.583-.019 7.826 1.901 8.771 6.265.236 1.09 1.164 1.735 2.072 1.452.908-.283 1.451-1.223 1.215-2.313C10.558 2.696 4.967 0 0 0" fill="#d3b7ea"/></g><g id="g242" transform="matrix(1.25 0 0 -1.25 422.06 44.839)"><path id="path244" d="M0 0h-.127C-5.902 0-10.37 3.787-11.509 9.414c-.221 1.096.339 2.223 1.25 2.49.91.261 1.829-.392 2.052-1.486.921-4.557 4.944-6.202 8.108-6.235 3.585-.018 7.826 1.916 8.771 6.278.238 1.091 1.164 1.742 2.073 1.46.907-.283 1.452-1.452 1.214-2.542C10.558 2.926 4.967 0 0 0" fill="#d3b7ea"/></g><g id="g238" transform="matrix(1.25 0 0 -1.25 465.93 44.839)"><path id="path240" d="M0 0h-.129c-5.773 0-10.24 3.787-11.378 9.414-.223 1.096.335 2.223 1.248 2.49.91.261 1.829-.392 2.051-1.486.921-4.557 4.944-6.202 8.109-6.235 3.583-.018 7.826 1.916 8.771 6.278.236 1.091 1.164 1.742 2.072 1.46.908-.283 1.451-1.452 1.216-2.542C10.557 2.926 4.965 0 0 0" fill="#d3b7ea"/></g></g><g id="juui-leftPupilEye" transform="matrix(1.25 0 0 -1.25 404.63 -129.62)"><path id="juui-leftPupilEye-path" d="M0 0c0-10.653-8.638-19.29-19.292-19.29-10.653 0-19.289 8.637-19.289 19.29 0 10.654 8.636 19.29 19.289 19.29C-8.638 19.29 0 10.654 0 0"/></g><path id="juui-leftCenterPupilEye-path" d="M371.51-138.14a4.386 4.386 0 0 1-4.384 4.386 4.385 4.385 0 0 1-4.382-4.386 4.383 4.383 0 1 1 8.766 0" fill="#fff"/><g id="juui-rightPupilEye" transform="matrix(1.25 0 0 -1.25 507.4 -105.44)"><path id="juui-rightPupilEye-path" d="M0 0c-10.653 0-19.29 8.638-19.29 19.292 0 10.653 8.637 19.289 19.29 19.289 10.654 0 19.29-8.636 19.29-19.289C19.29 8.638 10.654 0 0 0"/></g><g id="juui-rightCenterPupilEye" transform="matrix(1.25 0 0 -1.25 515.93 -138.57)"><path id="juui-rightCenterPupilEye-path" d="M0 0a3.509 3.509 0 0 0-3.509 3.507 3.509 3.509 0 0 0 7.017 0A3.507 3.507 0 0 0 0 0" fill="#fff"/></g></g></svg>