<svg xmlns="http://www.w3.org/2000/svg" width="720" height="720" viewBox="0 0 720 720.00001" id="svg3407"><defs id="defs3409"><marker orient="auto" id="Arrow1Lstart" overflow="visible"><path id="path4196" d="M10 0l4-4L0 0l14 4-4-4z" fill-rule="evenodd" stroke="#000" stroke-width=".8pt"/></marker></defs><g id="layer1" transform="translate(0 -332.362)"><g id="g4300" transform="translate(-862.857 -685.714)"><g id="g4184" transform="rotate(-30 1502.857 1378.076)"><path id="polygon" d="M1494.536 1373.272l-234.166 135.196-234.165-135.196V1102.88l234.165-135.196 234.166 135.196z" fill="#47bbea" stroke="#000" stroke-width="2" stroke-linejoin="round"/><circle r="232.914" cy="1238.076" cx="1260.37" id="internalCircle" fill="none" stroke="#000" stroke-width="3" stroke-linejoin="round"/><circle r="270.067" cy="1238.076" cx="1260.37" id="externalCircle" fill="none" stroke="#000" stroke-width="3" stroke-linejoin="round"/><circle r="7.559" cy="1238.076" cx="1260.37" id="center" stroke="#000" stroke-width=".442" stroke-linejoin="round"/><path id="radius" d="M1027.037 1372.476l232.904-134.467" fill-rule="evenodd" stroke="#000" stroke-width="3" stroke-linecap="round" stroke-linejoin="round"/><path id="apothem" d="M1260.95 1239.3l-115.795 200.562" fill="none" fill-rule="evenodd" stroke="#000" stroke-width="3" stroke-linecap="round" stroke-linejoin="round"/><path id="angle90" fill="#7ada00" stroke="#7ada00" stroke-width="3" stroke-linecap="round" stroke-linejoin="round" d="M1133.296 1400.576l23.094 13.334-13.334 23.094-23.094-13.333z"/><text style="line-height:125%" x="1714.678" y="577.255" id="apothemText" transform="rotate(30)" font-weight="400" font-size="40" font-family="sans-serif" letter-spacing="0" word-spacing="0"><tspan id="tspan4611" x="1714.678" y="577.255">a</tspan></text><text style="line-height:125%" x="1693.986" y="426.764" id="centerText" transform="rotate(30)" font-weight="400" font-size="40" font-family="sans-serif" letter-spacing="0" word-spacing="0"><tspan id="tspan4611-2" x="1693.986" y="426.764">O</tspan></text><g id="slice" transform="translate(-242.487 -140)" fill-rule="evenodd" stroke="#000" stroke-width="3" stroke-linecap="round"><path id="path4159" d="M1321.25 1553.052c30.559-13.71 31.212-13.332 31.212-13.332"/><path id="path4159-2" d="M1427.44 1614.362c30.56-13.71 31.213-13.333 31.213-13.333"/></g><text style="line-height:125%" x="1620.07" y="546.689" id="radiusText" transform="rotate(30)" font-weight="400" font-size="40" font-family="sans-serif" letter-spacing="0" word-spacing="0"><tspan id="tspan4611-1" x="1620.07" y="546.689">r</tspan></text></g></g></g></svg>