<svg xmlns="http://www.w3.org/2000/svg" height="145.996" width="172.305" viewBox="0 0 161.53684 136.87241"><g fill="#0092d0"><path d="M19.724 28.804c-2.061-.02-4.4.32-5.672 2.127-.815 1.158-.666 2.843.142 3.959.842 1.162 2.213 1.636 3.54 1.012 2.036-.96 2.562-4.061 2.827-5.999l-1.705-.23c-.186 2.125.009 4.797 1.961 6.099 1.769 1.179 3.694-.322 4.687-1.75.64-.923-.866-1.79-1.5-.877-.47.676-1.494 1.773-2.388 1.08-1.262-.977-1.145-3.161-1.024-4.553.085-.97-1.572-1.2-1.705-.23-.2 1.457-.452 3.83-1.765 4.8-.563.417-1.105.218-1.484-.304-.48-.664-.54-1.425-.086-2.131.796-1.241 2.901-1.279 4.172-1.267 1.12.01 1.12-1.725 0-1.736m6.268-1.176c3.228 1.639 6.69 3.491 9.325 6.012.808.774 2.038-.453 1.227-1.228-2.748-2.629-6.309-4.574-9.675-6.284-.997-.505-1.875.993-.877 1.5"/><path d="M34.757 25.706c-2.285 2.314-4.328 4.845-6.283 7.44-.674.895.834 1.759 1.5.876 1.866-2.476 3.83-4.88 6.011-7.088.787-.797-.44-2.026-1.228-1.228m3.967-5.784c.7-.083 2.283-.366 2.624.522.387 1.005-.639 2.424-1.139 3.2-.367.573.12 1.292.75 1.308 1.959.048 3.89.496 5.82-.031 1.079-.295.621-1.97-.461-1.675-1.754.48-3.578.013-5.358-.03l.75 1.306c.86-1.34 1.856-3.129 1.229-4.758-.647-1.682-2.704-1.757-4.215-1.578-1.098.13-1.11 1.868 0 1.736m17.05 6.628c.578 2.843 1.106 5.936 2.323 8.59.466 1.016 1.962.134 1.5-.876-1.146-2.498-1.604-5.501-2.148-8.176-.224-1.096-1.897-.631-1.675.462"/><path d="M52.694 31.099h8.942c1.12 0 1.12-1.736 0-1.736h-8.942c-1.12 0-1.12 1.736 0 1.736m15.93-11.255c1.079 4.524 1.632 9.13 2.205 13.74.112.903 1.462 1.263 1.705.23.411-1.743 2.187-6.266 3.596-2.525 1.292 3.43-2.576 3.251-4.762 2.576-1.072-.332-1.527 1.344-.46 1.675 2.052.634 4.743 1.164 6.363-.661 1.075-1.212.968-3.137.345-4.527-.562-1.257-1.763-2.617-3.298-2.32-2.276.44-3.015 3.437-3.458 5.32l1.705.232c-.591-4.763-1.152-9.527-2.266-14.202-.26-1.089-1.935-.627-1.675.462m10.11 8.989c2.967 1.236 5.704 3.127 8 5.364.802.782 2.03-.445 1.228-1.227a28.061 28.061 0 0 0-8.766-5.812c-1.034-.43-1.48 1.25-.462 1.675"/><path d="M86.594 25.322c-1.757 2.96-3.329 6.042-5.452 8.767-.679.871.54 2.11 1.228 1.227 2.22-2.849 3.886-6.022 5.724-9.117.573-.966-.93-1.838-1.5-.877m8.26.997c.038 2.822.682 5.434 1.708 8.054.403 1.031 2.083.583 1.674-.461-.97-2.475-1.61-4.922-1.646-7.593-.015-1.12-1.751-1.12-1.736 0"/><path d="M91.584 30.51c2.465.576 4.977.588 7.495.59 1.12 0 1.12-1.737 0-1.738-2.361 0-4.72.013-7.033-.527-1.09-.254-1.553 1.42-.462 1.675m17.32-4.47c-2.238.816-4.25 2.768-3.73 5.358.585 2.913 3.503 4.108 6.196 4.172 1.12.027 1.118-1.71 0-1.737-1.74-.04-3.747-.585-4.402-2.397-.638-1.767.89-3.171 2.398-3.721 1.043-.38.593-2.059-.462-1.675m10.62 2.793c2.057.626 4.25.588 6.377.59 1.12 0 1.12-1.737 0-1.738-1.977 0-4.005.056-5.915-.527-1.074-.327-1.53 1.349-.462 1.675m1.58 6.147c1.946-.462 3.74-.462 5.686 0 1.089.258 1.55-1.416.462-1.675a13.879 13.879 0 0 0-6.61 0c-1.089.26-.627 1.933.462 1.675m18.21-16.794c-7.566.402-9.601 15.219-1.52 16.142 7.35.839 7.401-13.5 1.958-16.024-1.009-.468-1.892 1.03-.876 1.5 3.752 1.74 4.402 11.09.169 12.728-5.363 2.077-6.775-12.234.269-12.61 1.114-.06 1.12-1.796 0-1.736"/></g><path d="M61.441 73.722c-1.029-.722-2.29-.561-3.43.281-.932.688-.303 1.379-.046 2.061.178.47.42.916.634 1.373l.31-.037 2.532-3.678m11.744-15.757c-.132-.194-.184-.26-.227-.332-.883-1.505-1.275-1.56-2.514-.37-.207.197-.495.322-.663.544a219.165 219.165 0 0 0-3.42 4.586 99.572 99.572 0 0 0-2.554 3.748c-.208.319-.486.965-.385 1.05a5.51 5.51 0 0 0 1.701.998c.199.07.647-.297.853-.562.646-.834 1.209-1.73 1.841-2.573 1.773-2.362 3.564-4.71 5.368-7.09m8.987-4.45c-2.161.035-4.944 1.263-6.147 2.796-2.149 2.739-4.28 5.496-6.29 8.336-1.197 1.69-2.632 3.208-3.483 5.17-.498 1.147-1.495 2.076-2.243 3.12a589.05 589.05 0 0 0-4.486 6.326c-1.328 1.908-2.598 3.858-3.936 5.759-.662.94-1.509 1.756-2.119 2.724a111.44 111.44 0 0 0-3.514 5.982c-1.112 2.038-2.092 4.146-2.47 6.472-.183 1.126.562 2.46 1.467 3.099a71.204 71.204 0 0 1 4.372 3.373c1.63 1.354 3.119 2.887 4.807 4.159 2.146 1.615 4.421 3.06 6.66 4.552 1.74 1.16 3.456 2.375 5.28 3.39 2.628 1.46 5.335 2.784 8.03 4.122 1.367.68 2.71 1.26 4.368 1.236 2.413-.032 4.381-.856 5.785-2.671 1.715-2.217 3.172-4.635 4.74-6.966 1.988-2.96 3.943-5.941 5.973-8.87 1.438-2.078 3.034-4.046 4.457-6.132 2.674-3.919 5.174-7.937 6.964-12.365 1.087-2.687 2.452-5.259 3.04-8.136.4-1.966.308-3.774-1.222-5.274-1.558-1.527-3.1-3.07-4.676-4.58a18.775 18.775 0 0 0-2.037-1.705c-1.398-.997-2.888-1.87-4.246-2.915-1.726-1.328-3.355-2.78-5.034-4.168-.377-.312-.79-.58-1.188-.867-1.711-1.236-3.378-2.542-5.154-3.678-.833-.533-1.887-.71-2.82-1.1-1.639-.686-3.253-1.446-4.878-1.188m12.603 60.661c-.54.16-.338.47-1.21 2.001-.873 1.531-2.33 3.771-3.969 5.87-1.822 2.333-4.196 3.755-7.294 3.576-2.082-.122-4.013-.669-5.845-1.747-2.447-1.442-5.032-2.647-7.5-4.058-1.636-.936-3.175-2.047-4.749-3.092-1.863-1.238-3.787-2.4-5.558-3.76-2.295-1.763-4.462-3.694-6.692-5.543a250.418 250.418 0 0 0-4.054-3.313c-1.857-1.476-2.343-3.39-1.524-5.516a65.866 65.866 0 0 1 3.042-6.723c.907-1.738 2.025-3.373 3.135-4.997 1.376-2.015 2.854-3.962 4.257-5.961.396-.562.84-1.17.97-1.817.12-.601-.05-1.317-.269-1.917-.287-.789-.816-1.491-1.098-2.282-.1-.28.128-.79.363-1.058 1.376-1.565 3.203-1.644 5.074-1.36.517.08.812.021 1.07-.42.42-.72.877-1.418 1.303-2.135.262-.44.284-.854-.215-1.17-.504-.319-.977-.694-1.507-.96-.53-.265-.7-.627-.397-1.105a42.331 42.331 0 0 1 1.76-2.558c1.7-2.28 3.406-4.557 5.147-6.806.49-.63 1.076-1.201 1.683-1.724.529-.455 1.451-.283 2.06.245.418.362.868.685 1.241.978 2.03-2.293 4.203-4.128 7.158-4.384 1.692-.146 3.47.035 5.116.797 1.628.754 3.399 1.235 4.95 2.112 1.533.866 2.865 2.085 4.293 3.14 1.217.897 2.454 1.77 3.667 2.672a107.5 107.5 0 0 1 2.646 2.041c.923.73 1.735 1.677 2.765 2.176 2.83 1.37 4.593 3.953 6.956 5.844 1.06.846 1.95 1.968 2.715 3.103.98 1.458.719 3.183.467 4.793-.474 3.032-1.737 5.81-3.054 8.557-.851 1.777-1.58 3.625-2.582 5.313a186.949 186.949 0 0 1-5.67 8.95c-1.971 2.935-4.078 5.78-6.125 8.665-.895 1.262-1.786 2.526-2.526 3.573" fill-rule="evenodd" opacity=".6" fill="#40b4c6"/><path d="M107.634 79.765c-.103-.326-.158-.486-.203-.65-.272-.971-.902-1.63-1.646-2.314-1.236-1.137-2.292-2.476-3.39-3.759-1.063-1.242-2.015-2.584-3.133-3.772-3.305-3.512-7.213-6.297-11.17-9.006-.794-.543-1.716-.924-2.623-1.262-.383-.144-.98-.139-1.31.067-2.34 1.469-4.614 3.048-6.053 5.493-.589 1-1.122 2.154-.53 3.303.504.977 1.145 1.947 1.936 2.698 1.815 1.725 3.723 3.36 5.662 4.946 1.698 1.388 3.482 2.673 5.248 3.977 1.1.812 2.233 1.578 3.357 2.356 1.037.717 2.06 1.457 3.128 2.125 1.212.758 2.437 1.51 3.716 2.148.878.439 1.716.694 2.783-.041 1.595-1.1 2.43-2.642 3.265-4.245.366-.704.673-1.439.963-2.064M75.952 67.142c.229-1.52.491-2.816 1.59-3.811.507-.462.76-1.209 1.272-1.664 1.386-1.232 2.782-2.474 4.307-3.52.963-.66 2.118-.63 3.29-.107 2.5 1.117 4.557 2.865 6.69 4.496a106.83 106.83 0 0 1 6.166 5.069c1.273 1.135 2.44 2.414 3.516 3.74 1.464 1.807 2.975 3.557 4.651 5.172.53.51.927 1.172 1.331 1.8.635.988.24 1.995-.19 2.881-.646 1.336-1.333 2.694-2.253 3.843-.845 1.055-1.94 1.963-3.073 2.716-1.024.682-2.212.277-3.184-.304-3.15-1.882-6.312-3.752-9.36-5.793-2.381-1.596-4.86-3.08-6.778-5.326-.983-1.152-2.379-1.941-3.499-2.99-1.395-1.31-2.781-2.65-3.996-4.122-.434-.527-.355-1.475-.48-2.08" fill-rule="evenodd" opacity=".6" fill="#40b4c6"/><path d="M97.864 95.195c-.137.047-.421.076-.613.224-.947.73-2.07 1.342-2.762 2.27-1.848 2.482-3.47 5.13-5.253 7.662-1.224 1.737-1.378 3.348.031 5.065.584.711 1.104.872 1.677.114 1.349-1.784 2.636-3.614 3.963-5.414 1.513-2.053 3.06-4.082 4.557-6.146.49-.678 1.106-1.36.652-2.337-.31-.663-1.428-1.441-2.252-1.438m-11.31 12.498c.51-.99.942-2.055 1.565-2.993 1.522-2.293 3.129-4.53 4.711-6.785.865-1.232 1.83-2.351 3.13-3.18 1.336-.854 2.847-.83 4.084.11.775.59 1.218 1.407 1.57 2.228.177.41-.029 1.127-.297 1.56-.585.945-1.328 1.79-1.991 2.687a539.905 539.905 0 0 0-2.834 3.88c-1.516 2.092-3.043 4.176-4.534 6.285-.61.862-1.52.986-2.424 1.037-.302.017-.747-.316-.921-.61-.506-.854-.912-1.768-1.347-2.662-.222-.456-.424-.923-.713-1.557" fill-rule="evenodd" opacity=".6" fill="#a3df4f"/><path d="M71.014 113.055c.345.48.542.972.903 1.216.948.638 1.969 1.168 2.96 1.742.593.343 1.17.72 1.781 1.023.934.462 1.946.786 2.83 1.325 2 1.219 2.059 1.26 3.67-.457.35-.37.649-.813.879-1.268.914-1.808.832-2.198-.662-3.556a12.23 12.23 0 0 0-1.076-.862c-2.208-1.583-4.424-3.156-6.633-4.736-.541-.388-.962-.217-1.339.249-.52.643-1.124 1.235-1.548 1.937-.632 1.046-1.138 2.168-1.765 3.387m10.291 7.785c-.645-.257-1.359-.36-1.812-.758-1.635-1.435-3.732-1.995-5.537-3.093-1.08-.657-2.182-1.307-3.163-2.096-.798-.641-1.036-1.636-.62-2.589.54-1.245 1.18-2.453 1.862-3.63.4-.69.883-1.373 1.468-1.906.902-.82 2.204-.845 3.16-.142 2.558 1.885 5.146 3.739 7.612 5.74.756.613 1.227 1.628 1.676 2.535.154.312-.055.915-.274 1.28-.89 1.49-1.518 3.193-3.105 4.156-.361.218-.794.32-1.267.503" fill-rule="evenodd" opacity=".6" fill="#040c19"/><path d="M69.644 102.595c-1.002-.396-1.865-.697-2.69-1.077-.742-.341-1.403-.673-2.261-.217-.801.426-1.244 1.097-1.617 1.836-.376.743-.64 1.54-.984 2.3-.645 1.427-.917 2.758.413 4.028.786.749 1.474 1.036 2.356.404 2.494-1.789 4.133-4.16 4.783-7.274m-5.563 8.92c-1.424.172-2.01-.899-2.759-1.767-.308-.357-.775-.573-1.112-.912-.18-.18-.393-.548-.323-.724.833-2.095 1.79-4.143 2.561-6.26.571-1.565 1.781-1.92 3.168-1.954.532-.013 1.078.357 1.61.575.471.195.912.5 1.4.618 1.561.375 2.495 1.958 1.874 3.432-.971 2.305-2.43 4.309-4.206 6.046-.558.545-1.422.775-2.147 1.149a17.073 17.073 0 0 0-.066-.204m12.833-25.759c.204.437.283.836.52 1.072.913.908 1.916 1.726 2.804 2.655.402.42.709.34 1.126.153 1.595-.716 2.603-2.078 3.496-3.457.503-.774.982-1.832.188-2.8-.543-.658-1.105-1.314-1.736-1.887-.922-.838-1.452-.763-2.543-.173-1.206.653-1.973 1.72-2.822 2.708-.428.498-.689 1.139-1.033 1.729m-1.363.168c.197-.491.282-.822.449-1.106.898-1.528 2.022-2.858 3.487-3.88.164-.114.324-.247.445-.403 1.304-1.68 3.104-1.347 4.355.273.365.472.802.89 1.198 1.34 1.483 1.676 1.38 2.743.295 4.429-.868 1.35-2.025 2.552-3.21 3.654-1.386 1.29-2.187 1.243-3.43.023-.83-.816-1.754-1.548-2.516-2.421-.483-.556-.743-1.305-1.073-1.909" fill-rule="evenodd" opacity=".6" fill="#40b4c6"/><path opacity=".6" d="M68.694 78.725c.187.43.262.82.488 1.079.58.663 1.207 1.29 1.85 1.893.854.8 1.264.857 2.15.085 1.007-.878 2.004-1.799 2.843-2.833 1.232-1.522.558-4.016-1.265-4.778-.452-.19-1.203-.155-1.6.107-1.303.86-2.696 1.65-3.618 2.977-.316.455-.557.961-.848 1.47m3.343 5.125c-.578-.305-1.076-.45-1.411-.768-.953-.9-1.91-1.816-2.735-2.831-.849-1.045-.387-2.219.28-3.087.827-1.078 1.918-1.958 2.924-2.892.397-.37.855-.68 1.313-.978 1.371-.893 2.94-.618 3.923.706.56.755 1.232 1.495 1.531 2.354.213.61.086 1.522-.242 2.098-.91 1.6-2.06 3.044-3.63 4.088-.656.436-1.308.877-1.953 1.31" fill-rule="evenodd" fill="#ff3829"/><path d="M78.604 102.015c.024.12.014.344.11.504.678 1.134 1.825 1.63 2.956 2.165 1.098.517 1.963.094 2.73-.627.644-.606 1.22-1.286 1.8-1.956.746-.858 1.002-1.825.13-2.701a21.695 21.695 0 0 0-2.872-2.404c-.273-.192-.933-.074-1.282.13a9.18 9.18 0 0 0-1.903 1.474c-.899.917-1.512 2.019-1.669 3.415m3.909 4.433c-1.59-.716-3.087-1.185-4.146-2.37-.418-.468-.666-1.104-.926-1.694-.612-1.39.42-2.379 1.023-3.368.885-1.45 2.112-2.669 3.86-3.076.519-.121 1.258-.136 1.64.147 1.274.943 2.741 1.678 3.597 3.136.525.894.74 2.122-.03 2.947-.974 1.045-1.799 2.242-2.842 3.207-.584.541-1.482.745-2.176 1.071" fill-rule="evenodd" opacity=".6" fill="#40b4c6"/><path d="M59.294 88.025l.2.135c-.045.765.439 1.184 1.036 1.525.574.329 1.17.623 1.723.985.867.567 2.254.422 2.832-.41.538-.773 1.011-1.596 1.463-2.424.635-1.163.491-1.928-.43-2.837a15.2 15.2 0 0 1-1.04-1.13c-.969-1.17-1.765-1.236-2.849-.145-.582.586-1.151 1.207-1.611 1.889-.51.758-.888 1.604-1.324 2.412m8.988-1.396c-.659 2.02-1.574 3.618-3.121 4.787-1.878 1.42-2.048 1.391-3.964.002-.37-.268-.804-.445-1.202-.676-1.983-1.15-2.139-1.915-1.437-3.855.678-1.879 2.082-3.264 3.41-4.674.728-.773 1.914-.757 2.816-.047.917.722 1.888 1.426 2.628 2.31.489.587.613 1.477.87 2.153" fill-rule="evenodd" opacity=".6" fill="#604cb5"/><path d="M58.604 95.325l.188-.28c-.649-.467-1.306-.923-1.944-1.406-.676-.512-1.228-.315-1.861.147-1.49 1.088-2.272 2.678-2.911 4.285-.471 1.186-.73 2.518.552 3.602 1.2 1.014 2.576.971 3.514-.254.295-.386.708-.688.978-1.087.528-.781 1.08-1.567 1.456-2.423.254-.576.533-1.397-.638-1.516-.22-.023-.415-.272-.822-.557l1.488-.511m-8.072 5.205c.094-1.87.494-3.244 1.347-4.534.894-1.35 1.702-2.74 3.181-3.538.242-.131.597-.235.84-.16 2.118.665 3.651 1.972 4.245 4.173.084.312-.235.716-.302 1.088-.44 2.464-2.335 3.954-3.885 5.632-.655.71-1.745.355-2.614.036-.667-.243-1.444-.448-1.901-.928-.51-.534-.715-1.362-.91-1.769" fill-rule="evenodd" opacity=".6" fill="#e94c0f"/><path d="M86.674 91.705c.235.358.437.895.822 1.202.731.582 1.6.99 2.35 1.551.618.463 1.181.413 1.72-.014 1.306-1.037 2.222-2.371 2.783-3.936.132-.367.206-.793.164-1.176-.098-.886-2.832-2.52-3.625-2.107-1.634.852-3.12 1.916-3.972 3.64-.099.198-.127.432-.242.84m-1.32-.161c.155-.453.2-.997.487-1.34.97-1.165 1.937-2.36 3.07-3.355 1.38-1.213 2.38-1.093 4.127-.244.762.37 1.516.902 2.052 1.543.367.438.574 1.235.47 1.803-.456 2.514-1.918 4.4-3.974 5.872-.803.575-1.493.217-2.15-.182-1.026-.621-2.007-1.317-3.001-1.99-.733-.494-.984-1.224-1.08-2.107m-16.161 3.191c.4.453.666.937 1.076 1.186 1.002.607 2.096 1.06 3.102 1.664.588.353 1.05.244 1.478-.151a8.128 8.128 0 0 0 1.137-1.269c1.708-2.418 1.125-4.595-1.533-5.822a.586.586 0 0 0-.248-.07c-.437.017-.975-.108-1.292.102-.926.613-1.86 1.272-2.604 2.084-.509.554-.702 1.396-1.116 2.276m8.95-1.794c.093 2.002-1.69 4.985-3.396 5.822-.794.389-1.494.138-2.2-.234-.926-.49-1.836-1.021-2.798-1.43-1.15-.49-1.762-1.692-1.392-2.92.06-.205-.062-.48.028-.657.303-.601.588-1.237 1.02-1.741.584-.684 1.326-1.229 1.945-1.886.91-.968 2.447-1.234 3.559-.52.768.492 1.545.985 2.251 1.56.64.522 1.069 1.21.983 2.006" fill-rule="evenodd" opacity=".6" fill="#40b4c6"/></svg>