<svg xmlns="http://www.w3.org/2000/svg" width="1280" height="720" viewBox="0 0 1280 720.00001" id="svg3407"><g id="layer1" transform="translate(0 -332.362)"><g id="g4300" transform="translate(-862.857 -685.714)"><path d="M1782.678 1592.38h-496.56l248.28-430.033z" id="path3373-74" fill="none" stroke="#000" stroke-width="3"/><path id="path4243" d="M1534.16 1174.127l-33.339 57.745a62.63 62.63 0 0 0 33.334 9.695 62.63 62.63 0 0 0 33.364-9.658l-33.36-57.782z" fill="#47bbea" stroke="#000" stroke-width="2"/><path id="path4243-5" d="M1773.246 1586.682l-33.339-57.744a62.63 62.63 0 0 0-25.063 24.02 62.63 62.63 0 0 0-8.317 33.723h66.72z" fill="#47bbea" stroke="#000" stroke-width="2"/><path id="path4243-5-6" d="M1296.188 1586.682h66.677a62.63 62.63 0 0 0-8.271-33.717 62.63 62.63 0 0 0-25.046-24.064l-33.36 57.78z" fill="#47bbea" stroke="#000" stroke-width="2"/><text style="line-height:125%;-inkscape-font-specification:'Roboto, Normal';text-align:start" x="1515.899" y="1286.91" id="text4386" font-weight="400" font-size="68.755" font-family="Roboto" letter-spacing="0" word-spacing="0"><tspan id="tspan4388" x="1515.899" y="1286.91">α</tspan></text><text style="line-height:125%;-inkscape-font-specification:'Roboto, Normal';text-align:start" x="1661.992" y="1559.079" id="text4386-7" font-weight="400" font-size="68.755" font-family="Roboto" letter-spacing="0" word-spacing="0"><tspan id="tspan4388-6" x="1661.992" y="1559.079">θ</tspan></text><text style="line-height:125%;-inkscape-font-specification:'Roboto, Normal';text-align:start" x="1361.278" y="1559.079" id="text4386-7-9" font-weight="400" font-size="68.755" font-family="Roboto" letter-spacing="0" word-spacing="0"><tspan id="tspan4388-6-7" x="1361.278" y="1559.079">ω</tspan></text><g id="gE1"><path d="M1589.116 1106.128l-33.328 57.725h-.088l33.34 57.744a62.63 62.63 0 0 0 25.062-24.021 62.63 62.63 0 0 0 8.316-33.667h.015a62.63 62.63 0 0 0-8.272-33.716 62.63 62.63 0 0 0-25.045-24.065z" id="e1" fill="#ff249c" stroke="#000" stroke-width="2" stroke-linejoin="round"/><text id="text4386-5" y="1170.508" x="1630.564" style="line-height:125%;-inkscape-font-specification:'Roboto, Normal';text-align:start" font-weight="400" font-size="68.755" font-family="Roboto" letter-spacing="0" word-spacing="0"><tspan y="1170.508" x="1630.564" id="tspan4388-9">e<tspan id="tspan4196" font-size="65%" baseline-shift="sub">1</tspan></tspan></text></g><g id="gE2"><path d="M1804.338 1663.716l-33.327-57.726.042-.078-66.679.001a62.63 62.63 0 0 0 8.272 33.716 62.63 62.63 0 0 0 24.998 24.035h-.023a62.63 62.63 0 0 0 33.335 9.695 62.63 62.63 0 0 0 33.363-9.657z" id="e2" fill="#ff7312" stroke="#000" stroke-width="2" stroke-linejoin="round"/><text id="text4386-5-7" y="1642.556" x="1636.575" style="line-height:125%;-inkscape-font-specification:'Roboto, Normal';text-align:start" font-weight="400" font-size="68.755" font-family="Roboto" letter-spacing="0" word-spacing="0"><tspan y="1642.556" x="1636.575" id="tspan4388-9-7">e<tspan id="tspan4219" font-size="65%" baseline-shift="sub">2</tspan></tspan></text></g><g id="gE3"><path d="M1205.87 1575.22h66.655l.046.077 33.338-57.746a62.63 62.63 0 0 0-33.334-9.694 62.63 62.63 0 0 0-33.314 9.631l.01-.02a62.63 62.63 0 0 0-25.064 24.021 62.63 62.63 0 0 0-8.318 33.722z" id="e3" fill="#7ada00" stroke="#000" stroke-width="2" stroke-linejoin="round"/><text id="text4386-5-7-7" y="1476.156" x="1202.857" style="line-height:125%;-inkscape-font-specification:'Roboto, Normal';text-align:start" font-weight="400" font-size="68.755" font-family="Roboto" letter-spacing="0" word-spacing="0"><tspan y="1476.156" x="1202.857" id="tspan4388-9-7-3">e<tspan id="tspan4242" font-size="65%" baseline-shift="sub">3</tspan></tspan></text></g></g></g></svg>