<svg xmlns="http://www.w3.org/2000/svg" height="338.96" width="312.08" viewBox="0 0 312.08033 338.96345"><path d="M140.08 254.958l-2.044-1.946 2.33-22.62c.555-5.382-.236-9.845-1.775-9.958l-.074-.008c-1.535-.113-3.23 4.162-3.784 9.541l-2.411 23.391-1.666.964c-5.331 3.082-8.936 6.434-8.052 7.484l.043.053c.766.91 4.638-.205 9.12-2.518-.185 4.437.587 7.876 1.925 7.917l.076.001c1.37.042 2.862-3.309 3.563-7.853 3.774 3.275 7.339 5.237 8.362 4.493l.054-.04c1.159-.839-1.376-4.825-5.666-8.9m43.356-.904l-1.647-.996-1.96-23.22c-.455-5.392-2.056-9.514-3.593-9.413l-.079.004c-1.534.102-2.426 4.323-1.972 9.718l1.896 22.46-2.082 1.908c-4.364 3.995-6.976 7.932-5.832 8.793l.057.046c1.01.757 4.608-1.137 8.439-4.339.61 4.598 2.045 8.016 3.426 7.939l.07-.027c1.336-.076 2.174-3.45 2.072-7.875 4.438 2.395 8.29 3.582 9.069 2.689l.047-.055c.905-1.033-2.636-4.456-7.911-7.632" fill="#ff931e"/><path d="M87.217 78.025c4.216-3.513 23.186 4.918 23.186 4.918s21.78-11.242 47.072-11.242c25.294 0 42.86 11.242 42.86 11.242s21.78-10.539 25.995-7.026-4.244 32.62-4.215 43.562c.09 35.452 26.697 123.657-68.152 124.357-94.854.707-65.899-89.337-64.64-124.357.374-10.37-6.323-37.94-2.109-41.452" fill="#a273d8"/><path d="M222.114 119.478c-.002-.28.007-.578.017-.879-5.775-11.715-17.83-19.777-31.774-19.777-16.489 0-30.345 11.27-34.287 26.529-3.94-15.26-17.797-26.529-34.286-26.529-14.549 0-27.043 8.778-32.49 21.323-.26 5.79-1.218 12.997-2.24 21.01 3.222 16.241 17.545 28.487 34.73 28.487 16.49 0 30.346-11.271 34.286-26.53 3.942 15.259 17.798 26.53 34.287 26.53 15.785 0 29.152-10.331 33.723-24.6-.936-9.82-1.95-18.69-1.968-25.564m-64.983 55.505c-30.072 0-54.45 23.75-54.45 53.046 0 .245.015.488.019.73 10.59 9.392 26.803 15.258 51.27 15.079 29.146-.217 46.809-8.703 57.312-21.373-2.857-26.682-26.007-47.482-54.151-47.482" fill="#bc94dd"/><path d="M144.834 130.018c0 13.968-11.325 25.293-25.294 25.293-13.97 0-25.294-11.325-25.294-25.293 0-13.969 11.325-25.293 25.294-25.293 13.97 0 25.294 11.324 25.294 25.293m73.068 0c0 13.968-11.324 25.293-25.294 25.293-13.968 0-25.291-11.325-25.291-25.293 0-13.969 11.323-25.293 25.291-25.293 13.97 0 25.294 11.324 25.294 25.293" fill="#fff"/><path d="M164.502 146.428c-6.297-7.385-16.24-2.769-16.901 0-.664 2.768 9.156 16.61 9.156 16.61s7.704-13.842 7.745-16.61" fill="#f99525"/><path d="M206.727 195.132c3.884-16.2 9.665-23.246 14.31-25.921 8.407-4.382 17.862 17.14 21.71 30.59 4.318 15.109 4.428 28.385.237 29.651-3.02.91-7.451-4.674-11.307-13.527-1.488 9.817-4.353 16.283-7.552 15.808-3.057-.456-5.63-7.137-6.9-16.647-3.468 8.829-7.444 14.11-10.256 12.794-4.016-1.884-4.127-16.546-.242-32.748m-100.535.917c-3.333-16.324-8.871-23.56-13.425-26.393-8.252-4.663-18.43 16.527-22.732 29.837-4.829 14.956-5.388 28.221-1.243 29.627 2.988 1.014 7.606-4.417 11.76-13.135 1.154 9.861 3.797 16.421 7.013 16.055 3.07-.354 5.869-6.944 7.46-16.405 3.166 8.943 6.961 14.356 9.815 13.134 4.077-1.746 4.686-16.395 1.352-32.72" fill="#662d91"/><path d="M155.871 206.864h-.093c-4.165 0-7.385-2.563-8.207-6.62-.16-.79.243-1.52.902-1.713.654-.187 1.319.325 1.479 1.113.664 3.288 3.564 4.496 5.848 4.519 2.584.014 5.642-1.371 6.323-4.518.172-.786.841-1.251 1.496-1.047.655.204 1.047.882.876 1.668-1.01 4.654-5.043 6.598-8.624 6.598m-26.123 0h-.093c-4.165 0-7.386-2.563-8.207-6.62-.16-.79.243-1.52.9-1.713.656-.187 1.32.325 1.479 1.113.666 3.288 3.567 4.496 5.848 4.519 2.585.014 5.643-1.371 6.326-4.518.17-.786.839-1.251 1.495-1.047.653.204 1.046.882.875 1.668-1.01 4.654-5.043 6.598-8.623 6.598m52.252 0h-.093c-4.164 0-7.385-2.563-8.207-6.62-.16-.79.243-1.52.902-1.713.656-.187 1.319.325 1.478 1.113.666 3.288 3.566 4.496 5.849 4.519 2.584.014 5.644-1.371 6.325-4.518.17-.786.84-1.251 1.494-1.047.655.204 1.047.882.876 1.668-1.01 4.654-5.042 6.598-8.624 6.598m-38.787 20.914h-.091c-4.165 0-7.387-2.731-8.209-6.789-.159-.79.245-1.603.902-1.796.656-.188 1.319.283 1.48 1.072.664 3.286 3.565 4.473 5.847 4.496 2.585.013 5.644-1.381 6.325-4.527.172-.787.84-1.256 1.495-1.053.654.204 1.047 1.047.876 1.833-1.01 4.654-5.043 6.764-8.625 6.764m25.31 0h-.093c-4.163 0-7.385-2.731-8.205-6.789-.161-.79.241-1.603.9-1.796.656-.188 1.319.283 1.479 1.072.664 3.286 3.565 4.473 5.848 4.496 2.584.013 5.643-1.381 6.325-4.527.17-.787.84-1.256 1.494-1.053.655.204 1.047 1.047.877 1.833-1.012 4.654-5.044 6.764-8.625 6.764" fill="#d3b7ea"/><path d="M133.157 127.128c0 7.682-6.229 13.911-13.912 13.911-7.683 0-13.91-6.229-13.91-13.911 0-7.683 6.227-13.911 13.91-13.911s13.912 6.228 13.912 13.91m59.291 13.951c-7.682 0-13.91-6.23-13.91-13.913 0-7.682 6.228-13.91 13.91-13.91 7.684 0 13.911 6.228 13.911 13.91 0 7.684-6.227 13.913-13.91 13.913"/><path d="M197.37 121.964a2.53 2.53 0 1 1-.001-5.06 2.53 2.53 0 0 1 0 5.06" fill="#fff"/></svg>