<svg id="svg6035" xmlns="http://www.w3.org/2000/svg" height="145.996" width="172.305" viewBox="0 0 161.53684 136.87241"><g id="layer1" transform="translate(-54.946 -25.355)"><g fill-opacity="0"><g id="g2724" transform="matrix(1.25 0 0 -1.25 61.831 31.13)"><path id="path2726" d="M0 0c0-40.626 1.219-59.313 1.219-99.939h117" stroke="#746661" stroke-miterlimit="10"/></g><g id="g2728" transform="matrix(1.25 0 0 -1.25 55.539 40.888)"><path id="path2730" d="M0 0a196.416 196.416 0 0 0 4.024 10.973L8.592-2.792c-.183.67-1.022.866-1.713.941l-6.964.762" stroke="#746661" stroke-miterlimit="10"/></g><g id="g2732" transform="matrix(1.25 0 0 -1.25 196.65 148)"><path id="path2734" d="M0 0a28.6 28.6 0 0 0 .076-10.395 57.963 57.963 0 0 0 11.435 5.187A123.263 123.263 0 0 0-.129.586" stroke="#746661" stroke-miterlimit="10"/></g><g id="g2736" transform="matrix(1.25 0 0 -1.25 197.59 151.56)"><path id="path2738" d="M0 0l1.425.95" stroke="#746661" stroke-miterlimit="10"/></g><g id="g2740" transform="matrix(1.25 0 0 -1.25 197.86 155.08)"><path id="path2742" d="M0 0a19.797 19.797 0 0 0 5.251 3.291" stroke="#746661" stroke-miterlimit="10"/></g><g id="g2744" transform="matrix(1.25 0 0 -1.25 198.14 158.02)"><path id="path2746" d="M0 0a35.056 35.056 0 0 0 7.211 4.6" stroke="#746661" stroke-miterlimit="10"/></g><g id="g2748" transform="matrix(1.25 0 0 -1.25 59.288 34.028)"><path id="path2750" d="M0 0l1.865 1.468" stroke="#746661" stroke-miterlimit="10"/></g><g id="g2752" transform="matrix(1.25 0 0 -1.25 57.53 38.502)"><path id="path2754" d="M0 0a18.24 18.24 0 0 0 4.677 3.445" stroke="#746661" stroke-miterlimit="10"/></g><g id="g2756" transform="matrix(1.25 0 0 -1.25 58.061 41.08)"><path id="path2758" d="M0 0a33.568 33.568 0 0 1 5.072 3.438" stroke="#746661" stroke-miterlimit="10"/></g><g id="g2760" transform="matrix(1.25 0 0 -1.25 63.446 42.045)"><path id="path2762" d="M0 0l.949.713" stroke="#746661" stroke-miterlimit="10"/></g><g id="g2772" transform="matrix(1.25 0 0 -1.25 61.96 75.027)"><path id="path2774" d="M0 0l4.982.31" stroke="#746661" stroke-miterlimit="10"/></g><g id="g2776" transform="matrix(1.25 0 0 -1.25 74.134 75.669)"><path id="path2778" d="M0 0l4.989.439" stroke="#746661" stroke-miterlimit="10"/></g><g id="g2780" transform="matrix(1.25 0 0 -1.25 90.446 74.63)"><path id="path2782" d="M0 0l5.233.323" stroke="#746661" stroke-miterlimit="10"/></g><g id="g2784" transform="matrix(1.25 0 0 -1.25 99.353 85.371)"><path id="path2786" d="M0 0v-6.173" stroke="#746661" stroke-miterlimit="10"/></g><g id="g2788" transform="matrix(1.25 0 0 -1.25 98.75 101.99)"><path id="path2790" d="M0 0l.308-5.457" stroke="#746661" stroke-miterlimit="10"/></g><g id="g2792" transform="matrix(1.25 0 0 -1.25 98.91 119.51)"><path id="path2794" d="M0 0l-.632-9.249" stroke="#746661" stroke-miterlimit="10"/></g><g id="g2796" transform="matrix(1.25 0 0 -1.25 98.764 135.83)"><path id="path2798" d="M0 0l-.305-5.695" stroke="#746661" stroke-miterlimit="10"/></g><g id="g2800" transform="matrix(1.25 0 0 -1.25 98.473 149.78)"><path id="path2802" d="M0 0a19.304 19.304 0 0 1-.223-4.983" stroke="#746661" stroke-miterlimit="10"/></g><g id="g2804" transform="matrix(1.25 0 0 -1.25 62.849 110.95)"><path id="path2806" d="M0 0l5.692.189" stroke="#746661" stroke-miterlimit="10"/></g><g id="g2808" transform="matrix(1.25 0 0 -1.25 80.053 111.14)"><path id="path2810" d="M0 0a29.29 29.29 0 0 0 6.18.434" stroke="#746661" stroke-miterlimit="10"/></g><g id="g2812" transform="matrix(1.25 0 0 -1.25 100.55 109.44)"><path id="path2814" d="M0 0c1.761.544 3.612.797 5.455.745" stroke="#746661" stroke-miterlimit="10"/></g><g id="g2816" transform="matrix(1.25 0 0 -1.25 114.79 109.75)"><path id="path2818" d="M0 0c1.65.222 3.317.316 4.981.281" stroke="#746661" stroke-miterlimit="10"/></g><g id="g2820" transform="matrix(1.25 0 0 -1.25 128.72 109.59)"><path id="path2822" d="M0 0l6.653.667" stroke="#746661" stroke-miterlimit="10"/></g><g id="g2824" transform="matrix(1.25 0 0 -1.25 142.99 109.75)"><path id="path2826" d="M0 0c1.802.278 3.634.367 5.455.265" stroke="#746661" stroke-miterlimit="10"/></g><g id="g2828" transform="matrix(1.25 0 0 -1.25 153.38 108.84)"><path id="path2830" d="M0 0c1.386.384 2.831.554 4.268.502" stroke="#746661" stroke-miterlimit="10"/></g><g id="g2832" transform="matrix(1.25 0 0 -1.25 160.25 108.81)"><path id="path2834" d="M0 0c.242-1.491.302-3.011.178-4.517" stroke="#746661" stroke-miterlimit="10"/></g><g id="g2836" transform="matrix(1.25 0 0 -1.25 159.62 121.58)"><path id="path2838" d="M0 0l-.311-4.982" stroke="#746661" stroke-miterlimit="10"/></g><g id="g2840" transform="matrix(1.25 0 0 -1.25 159.09 134.35)"><path id="path2842" d="M0 0l-.258-4.985" stroke="#746661" stroke-miterlimit="10"/></g><g id="g2844" transform="matrix(1.25 0 0 -1.25 158.42 147.4)"><path id="path2846" d="M0 0v-4.986" stroke="#746661" stroke-miterlimit="10"/></g><g id="g2848" transform="matrix(1.25 0 0 -1.25 109.44 52.722)"><path id="path2850" d="M0 0l-5.699-6.41" stroke="#746661" stroke-miterlimit="10"/></g><g id="g2852" transform="matrix(1.25 0 0 -1.25 102.51 50.737)"><path id="path2854" d="M0 0l7.797-8.847" stroke="#746661" stroke-miterlimit="10"/></g><g id="g2856" transform="matrix(1.25 0 0 -1.25 115.23 60.192)"><path id="path2858" d="M0 0a17.266 17.266 0 0 0 2.542 4.577 45.358 45.358 0 0 1 .417-10.275" stroke="#746661" stroke-miterlimit="10"/></g><g id="g2860" transform="matrix(1.25 0 0 -1.25 162.51 84.132)"><path id="path2862" d="M0 0l-7.579-9.205.031.617" stroke="#746661" stroke-miterlimit="10"/></g><g id="g2864" transform="matrix(1.25 0 0 -1.25 154.17 84.884)"><path id="path2866" d="M0 0a18.849 18.849 0 0 0 5.416-7.464" stroke="#746661" stroke-miterlimit="10"/></g><g id="g2868" transform="matrix(1.25 0 0 -1.25 164.62 91.159)"><path id="path2870" d="M0 0c.782.126 1.578.171 2.369.133.26-.012.531-.037.755-.171.421-.253.543-.825.451-1.308-.091-.483-.347-.916-.524-1.375-.236-.61-.314-1.352.079-1.875.393-.522 1.378-.542 1.603.072" stroke="#746661" stroke-miterlimit="10"/></g><g id="g2872" transform="matrix(1.25 0 0 -1.25 62.134 93.32)"><path id="path2874" d="M0 0c.288.517 1.282.114 1.128-.457C.975-1.029-.087-.88-.077-.288c.01.61 1.049.759 1.315.209C1.505-.628.95-1.33.34-1.314c-.388.01-.772.271-.874.645-.101.375.138.823.518.901.425.086.859-.372.75-.792s-.711-.608-1.04-.326S-.541.02-.143.192" stroke="#746661" stroke-miterlimit="10"/></g><path id="path2878" d="M61.96 95.068c4.091-8.694 12.649-14.419 21.38-18.428 4.006-1.839 8.229-3.434 12.632-3.601 6.584-.25 12.884 2.71 18.37 6.359a71.985 71.985 0 0 1 11.4 9.405c6.288 6.38 11.814 14.235 20.251 17.244 10.129 3.612 21.55-1.042 29.698-8.06 7.59-6.54 13.269-14.976 18.616-23.448a550.45 550.45 0 0 0 21.622-37.43" stroke="#47bbea" stroke-miterlimit="10" stroke-width="1.25"/></g><path id="path2766" d="M101.081 72.807c-.264-.376.39-.92.712-.59 1.098.268 1.292 2.027.36 2.667-.933.64-2.366.067-2.79-.98-.416-1.03.136-2.38 1.194-2.719 1.057-.34 2.348.554 2.304 1.664-.045 1.11-1.554 1.877-2.425 1.188-.87-.69-.33-2.427.78-2.42 1.177.008 1.723 1.647 1.192 2.697-.549 1.09-1.947 1.71-3.085 1.275-1.14-.437-1.757-1.953-1.146-3.01.609-1.057 2.358-1.223 3.077-.237.407.559.408 1.42-.09 1.897-.5.479-1.468.367-1.752-.264-.283-.631.435-1.472 1.074-1.207" stroke="#ff249c" stroke-miterlimit="10" stroke-width="1.231" fill="#ff249c"/><path id="path2766-8" d="M160.42 105.61c-.265-.377.39-.92.711-.59 1.098.268 1.293 2.026.36 2.666-.932.64-2.366.068-2.79-.98-.415-1.03.136-2.378 1.195-2.718 1.057-.34 2.348.554 2.304 1.664-.046 1.11-1.555 1.877-2.425 1.188-.871-.69-.33-2.428.78-2.42 1.177.007 1.722 1.647 1.192 2.696-.55 1.09-1.947 1.711-3.086 1.276-1.14-.437-1.756-1.954-1.146-3.01.61-1.057 2.358-1.223 3.077-.237.408.559.409 1.419-.09 1.896-.5.48-1.468.367-1.751-.263-.283-.631.434-1.472 1.073-1.207" stroke="#ff249c" stroke-miterlimit="10" stroke-width="1.231" fill="#ff249c"/></g></svg>