<svg xmlns="http://www.w3.org/2000/svg" width="1280" height="720" viewBox="0 0 1280 720.00001" id="svg3407"><defs id="defs3409"><marker orient="auto" id="Arrow1Lstart" overflow="visible"><path id="path4196" d="M10 0l4-4L0 0l14 4-4-4z" fill-rule="evenodd" stroke="#000" stroke-width=".8pt"/></marker></defs><g id="layer1" transform="translate(0 -332.362)"><g id="g4300" transform="translate(-862.857 -685.714)"><g id="g4184" transform="rotate(-30 1502.857 1378.076)"><path id="polygon" d="M1737.023 1513.272l-234.166 135.196-234.165-135.196V1242.88l234.165-135.196 234.166 135.196z" fill="#47bbea" stroke="#000" stroke-width="2" stroke-linejoin="round"/><path d="M1735.772 1378.076a232.914 232.914 0 0 1-232.915 232.915 232.914 232.914 0 0 1-232.914-232.915 232.914 232.914 0 0 1 232.914-232.914 232.914 232.914 0 0 1 232.915 232.914z" id="internalCircle" fill="none" stroke="#000" stroke-width="3" stroke-linejoin="round" stroke-dasharray="2.99999997,2.99999997"/><path d="M1772.924 1378.076a270.067 270.067 0 0 1-270.067 270.067 270.067 270.067 0 0 1-270.066-270.067 270.067 270.067 0 0 1 270.066-270.066 270.067 270.067 0 0 1 270.067 270.066z" id="externalCircle" fill="none" stroke="#000" stroke-width="3" stroke-linejoin="round" stroke-dasharray="2.99999997,2.99999997"/><path d="M1510.416 1378.076a7.559 7.559 0 0 1-7.559 7.559 7.559 7.559 0 0 1-7.558-7.559 7.559 7.559 0 0 1 7.558-7.558 7.559 7.559 0 0 1 7.559 7.558z" id="center" stroke="#000" stroke-width=".442" stroke-linejoin="round"/><path id="radius" d="M1269.524 1512.476l232.904-134.467" fill-rule="evenodd" stroke="#000" stroke-width="3" stroke-linecap="round" stroke-linejoin="round"/><path id="apothem" d="M1503.437 1379.3l-115.795 200.562" fill="none" fill-rule="evenodd" stroke="#000" stroke-width="3" stroke-linecap="round" stroke-linejoin="round"/><path d="M1375.782 1540.577l23.094 13.333-13.333 23.094-23.094-13.333z" id="angle90" fill="#7ada00" stroke="#7ada00" stroke-width="3" stroke-linecap="round" stroke-linejoin="round"/><g transform="rotate(30)" style="line-height:125%;-inkscape-font-specification:'Roboto, Normal';text-align:start" id="apothemText" font-weight="400" font-size="40" font-family="Roboto" letter-spacing="0" word-spacing="0"><path d="M2010.459 577.255q-.313-.625-.508-2.227-2.52 2.618-6.016 2.618-3.124 0-5.136-1.758-1.992-1.778-1.992-4.492 0-3.301 2.5-5.118 2.52-1.836 7.07-1.836h3.516v-1.66q0-1.894-1.133-3.008-1.133-1.132-3.34-1.132-1.934 0-3.242.976-1.309.977-1.309 2.363h-3.633q0-1.582 1.114-3.046 1.132-1.485 3.047-2.344 1.933-.86 4.238-.86 3.652 0 5.722 1.836 2.07 1.817 2.149 5.02v9.726q0 2.91.742 4.63v.312h-3.789zm-5.996-2.754q1.7 0 3.223-.879t2.207-2.285V567h-2.832q-6.641 0-6.641 3.887 0 1.699 1.133 2.656 1.133.957 2.91.957z" style="" id="path4298"/></g><g transform="rotate(30)" style="line-height:125%;-inkscape-font-specification:'Roboto, Normal';text-align:start" id="centerText" font-weight="400" font-size="40" font-family="Roboto" letter-spacing="0" word-spacing="0"><path d="M1999.162 413.463q0 4.18-1.406 7.305-1.407 3.105-3.985 4.746-2.578 1.64-6.015 1.64-3.36 0-5.957-1.64-2.598-1.66-4.043-4.707-1.426-3.066-1.465-7.09v-2.05q0-4.102 1.426-7.247 1.425-3.144 4.023-4.804 2.617-1.68 5.977-1.68 3.418 0 6.015 1.66 2.617 1.64 4.024 4.785 1.406 3.125 1.406 7.285v1.797zm-3.73-1.836q0-5.058-2.032-7.754-2.031-2.714-5.683-2.714-3.555 0-5.606 2.714-2.031 2.696-2.09 7.5v2.09q0 4.903 2.051 7.715 2.07 2.793 5.684 2.793 3.633 0 5.625-2.637 1.992-2.656 2.05-7.597v-2.11z" style="" id="path4301"/></g><g id="slice" fill-rule="evenodd" stroke="#000" stroke-width="3" stroke-linecap="round"><path id="path4159" d="M1321.25 1553.052c30.559-13.71 31.212-13.332 31.212-13.332"/><path id="path4159-2" d="M1427.44 1614.362c30.56-13.71 31.213-13.333 31.213-13.333"/></g><g transform="rotate(30)" style="line-height:125%;-inkscape-font-specification:'Roboto, Normal';text-align:start" id="radiusText" font-weight="400" font-size="40" font-family="Roboto" letter-spacing="0" word-spacing="0"><path d="M1913.02 528.799q-.821-.137-1.778-.137-3.555 0-4.824 3.027v15h-3.614v-21.133h3.516l.059 2.442q1.777-2.832 5.039-2.832 1.055 0 1.602.273v3.36z" style="" id="path4304"/></g></g></g></g></svg>